%TF.GenerationSoftware,KiCad,Pcbnew,8.0.6*%
%TF.CreationDate,2025-01-13T20:16:21-05:00*%
%TF.ProjectId,TamaBadge,54616d61-4261-4646-9765-2e6b69636164,rev?*%
%TF.SameCoordinates,Original*%
%TF.FileFunction,Soldermask,Top*%
%TF.FilePolarity,Negative*%
%FSLAX46Y46*%
G04 Gerber Fmt 4.6, Leading zero omitted, Abs format (unit mm)*
G04 Created by KiCad (PCBNEW 8.0.6) date 2025-01-13 20:16:21*
%MOMM*%
%LPD*%
G01*
G04 APERTURE LIST*
%ADD10C,2.000000*%
%ADD11O,1.730000X2.030000*%
%ADD12R,1.730000X2.030000*%
%ADD13R,1.800000X1.800000*%
%ADD14C,1.800000*%
%ADD15C,1.143000*%
%ADD16O,2.032000X1.016000*%
%ADD17O,1.998980X2.748280*%
%ADD18C,1.600000*%
%ADD19O,1.600000X1.600000*%
%ADD20C,1.727200*%
%ADD21O,1.727200X1.727200*%
%ADD22R,1.727200X1.727200*%
G04 APERTURE END LIST*
D10*
%TO.C,SW7*%
X95500000Y-134500000D03*
X95500000Y-128000000D03*
X100000000Y-134500000D03*
X100000000Y-128000000D03*
%TD*%
D11*
%TO.C,J1*%
X118540000Y-120000000D03*
X116000000Y-120000000D03*
D12*
X113460000Y-120000000D03*
%TD*%
D13*
%TO.C,D2*%
X128960000Y-116500000D03*
D14*
X131500000Y-116500000D03*
%TD*%
D15*
%TO.C,U1*%
X122464187Y-135038803D03*
X122464187Y-132498803D03*
X125004187Y-135038803D03*
X125004187Y-132498803D03*
D16*
X108000000Y-135050000D03*
X108000000Y-132500000D03*
D17*
X124317820Y-141797680D03*
X121777820Y-141797680D03*
X119237820Y-141797680D03*
X116697820Y-141797680D03*
X114157820Y-141797680D03*
X111617820Y-141797680D03*
X109077820Y-141797680D03*
X109077820Y-125633120D03*
X111617820Y-125633120D03*
X114157820Y-125633120D03*
X116697820Y-125633120D03*
X119237820Y-125633120D03*
X121777820Y-125633120D03*
X124317820Y-125633120D03*
%TD*%
D18*
%TO.C,R1*%
X103310000Y-121500000D03*
D19*
X95690000Y-121500000D03*
%TD*%
D18*
%TO.C,R2*%
X103500000Y-118310000D03*
D19*
X103500000Y-110690000D03*
%TD*%
D20*
%TO.C,X1*%
X117500000Y-158540000D03*
X117500000Y-156000000D03*
D21*
X114960000Y-158540000D03*
X114960000Y-156000000D03*
D22*
X112420000Y-158540000D03*
D21*
X112420000Y-156000000D03*
%TD*%
D10*
%TO.C,SW5*%
X119250000Y-152000000D03*
X112750000Y-152000000D03*
X119250000Y-147500000D03*
X112750000Y-147500000D03*
%TD*%
%TO.C,SW4*%
X107750000Y-149500000D03*
X101250000Y-149500000D03*
X107750000Y-145000000D03*
X101250000Y-145000000D03*
%TD*%
%TO.C,SW6*%
X130500000Y-149750000D03*
X124000000Y-149750000D03*
X130500000Y-145250000D03*
X124000000Y-145250000D03*
%TD*%
D13*
%TO.C,D1*%
X97225000Y-113500000D03*
D14*
X99765000Y-113500000D03*
%TD*%
M02*
