M48
; DRILL file {KiCad 8.0.6} date 2025-01-13T20:16:24-0500
; FORMAT={-:-/ absolute / inch / decimal}
; #@! TF.CreationDate,2025-01-13T20:16:24-05:00
; #@! TF.GenerationSoftware,Kicad,Pcbnew,8.0.6
; #@! TF.FileFunction,Plated,1,2,PTH
FMAT,2
INCH
; #@! TA.AperFunction,Plated,PTH,ViaDrill
T1C0.0118
; #@! TA.AperFunction,Plated,PTH,ComponentDrill
T2C0.0315
; #@! TA.AperFunction,Plated,PTH,ComponentDrill
T3C0.0354
; #@! TA.AperFunction,Plated,PTH,ComponentDrill
T4C0.0400
; #@! TA.AperFunction,Plated,PTH,ComponentDrill
T5C0.0402
; #@! TA.AperFunction,Plated,PTH,ComponentDrill
T6C0.0433
%
G90
G05
T1
X4.5102Y-5.0294
X4.559Y-5.0513
X4.7253Y-5.3036
X4.7944Y-5.0751
T2
X3.7673Y-4.7835
X4.0673Y-4.7835
X4.0748Y-4.3579
X4.0748Y-4.6579
T3
X3.8278Y-4.4685
X3.9278Y-4.4685
X5.0772Y-4.5866
X5.1772Y-4.5866
T4
X4.426Y-6.1417
X4.426Y-6.2417
X4.526Y-6.1417
X4.526Y-6.2417
X4.626Y-6.1417
X4.626Y-6.2417
T5
X4.4669Y-4.7244
X4.5669Y-4.7244
X4.6669Y-4.7244
T6
X3.7598Y-5.0394
X3.7598Y-5.2953
X3.937Y-5.0394
X3.937Y-5.2953
X3.9862Y-5.7087
X3.9862Y-5.8858
X4.2421Y-5.7087
X4.2421Y-5.8858
X4.439Y-5.8071
X4.439Y-5.9843
X4.6949Y-5.8071
X4.6949Y-5.9843
X4.8819Y-5.7185
X4.8819Y-5.8957
X5.1378Y-5.7185
X5.1378Y-5.8957
M30
