%TF.GenerationSoftware,KiCad,Pcbnew,8.0.6*%
%TF.CreationDate,2025-01-13T20:16:21-05:00*%
%TF.ProjectId,TamaBadge,54616d61-4261-4646-9765-2e6b69636164,rev?*%
%TF.SameCoordinates,Original*%
%TF.FileFunction,Legend,Top*%
%TF.FilePolarity,Positive*%
%FSLAX46Y46*%
G04 Gerber Fmt 4.6, Leading zero omitted, Abs format (unit mm)*
G04 Created by KiCad (PCBNEW 8.0.6) date 2025-01-13 20:16:21*
%MOMM*%
%LPD*%
G01*
G04 APERTURE LIST*
%ADD10C,0.100000*%
%ADD11C,0.150000*%
%ADD12C,0.101600*%
%ADD13C,0.076200*%
%ADD14C,0.120000*%
%ADD15C,0.254000*%
%ADD16C,0.127000*%
%ADD17C,0.066040*%
%ADD18C,0.500000*%
G04 APERTURE END LIST*
D10*
X128875312Y-142777180D02*
X128827693Y-142824800D01*
X128827693Y-142824800D02*
X128684836Y-142872419D01*
X128684836Y-142872419D02*
X128589598Y-142872419D01*
X128589598Y-142872419D02*
X128446741Y-142824800D01*
X128446741Y-142824800D02*
X128351503Y-142729561D01*
X128351503Y-142729561D02*
X128303884Y-142634323D01*
X128303884Y-142634323D02*
X128256265Y-142443847D01*
X128256265Y-142443847D02*
X128256265Y-142300990D01*
X128256265Y-142300990D02*
X128303884Y-142110514D01*
X128303884Y-142110514D02*
X128351503Y-142015276D01*
X128351503Y-142015276D02*
X128446741Y-141920038D01*
X128446741Y-141920038D02*
X128589598Y-141872419D01*
X128589598Y-141872419D02*
X128684836Y-141872419D01*
X128684836Y-141872419D02*
X128827693Y-141920038D01*
X128827693Y-141920038D02*
X128875312Y-141967657D01*
X115637217Y-144848609D02*
X115780074Y-144896228D01*
X115780074Y-144896228D02*
X115827693Y-144943847D01*
X115827693Y-144943847D02*
X115875312Y-145039085D01*
X115875312Y-145039085D02*
X115875312Y-145181942D01*
X115875312Y-145181942D02*
X115827693Y-145277180D01*
X115827693Y-145277180D02*
X115780074Y-145324800D01*
X115780074Y-145324800D02*
X115684836Y-145372419D01*
X115684836Y-145372419D02*
X115303884Y-145372419D01*
X115303884Y-145372419D02*
X115303884Y-144372419D01*
X115303884Y-144372419D02*
X115637217Y-144372419D01*
X115637217Y-144372419D02*
X115732455Y-144420038D01*
X115732455Y-144420038D02*
X115780074Y-144467657D01*
X115780074Y-144467657D02*
X115827693Y-144562895D01*
X115827693Y-144562895D02*
X115827693Y-144658133D01*
X115827693Y-144658133D02*
X115780074Y-144753371D01*
X115780074Y-144753371D02*
X115732455Y-144800990D01*
X115732455Y-144800990D02*
X115637217Y-144848609D01*
X115637217Y-144848609D02*
X115303884Y-144848609D01*
X104256265Y-142586704D02*
X104732455Y-142586704D01*
X104161027Y-142872419D02*
X104494360Y-141872419D01*
X104494360Y-141872419D02*
X104827693Y-142872419D01*
X96303884Y-137372419D02*
X96303884Y-136372419D01*
X96303884Y-136372419D02*
X96637217Y-137086704D01*
X96637217Y-137086704D02*
X96970550Y-136372419D01*
X96970550Y-136372419D02*
X96970550Y-137372419D01*
X97589598Y-137372419D02*
X97494360Y-137324800D01*
X97494360Y-137324800D02*
X97446741Y-137277180D01*
X97446741Y-137277180D02*
X97399122Y-137181942D01*
X97399122Y-137181942D02*
X97399122Y-136896228D01*
X97399122Y-136896228D02*
X97446741Y-136800990D01*
X97446741Y-136800990D02*
X97494360Y-136753371D01*
X97494360Y-136753371D02*
X97589598Y-136705752D01*
X97589598Y-136705752D02*
X97732455Y-136705752D01*
X97732455Y-136705752D02*
X97827693Y-136753371D01*
X97827693Y-136753371D02*
X97875312Y-136800990D01*
X97875312Y-136800990D02*
X97922931Y-136896228D01*
X97922931Y-136896228D02*
X97922931Y-137181942D01*
X97922931Y-137181942D02*
X97875312Y-137277180D01*
X97875312Y-137277180D02*
X97827693Y-137324800D01*
X97827693Y-137324800D02*
X97732455Y-137372419D01*
X97732455Y-137372419D02*
X97589598Y-137372419D01*
X98780074Y-137372419D02*
X98780074Y-136372419D01*
X98780074Y-137324800D02*
X98684836Y-137372419D01*
X98684836Y-137372419D02*
X98494360Y-137372419D01*
X98494360Y-137372419D02*
X98399122Y-137324800D01*
X98399122Y-137324800D02*
X98351503Y-137277180D01*
X98351503Y-137277180D02*
X98303884Y-137181942D01*
X98303884Y-137181942D02*
X98303884Y-136896228D01*
X98303884Y-136896228D02*
X98351503Y-136800990D01*
X98351503Y-136800990D02*
X98399122Y-136753371D01*
X98399122Y-136753371D02*
X98494360Y-136705752D01*
X98494360Y-136705752D02*
X98684836Y-136705752D01*
X98684836Y-136705752D02*
X98780074Y-136753371D01*
X99637217Y-137324800D02*
X99541979Y-137372419D01*
X99541979Y-137372419D02*
X99351503Y-137372419D01*
X99351503Y-137372419D02*
X99256265Y-137324800D01*
X99256265Y-137324800D02*
X99208646Y-137229561D01*
X99208646Y-137229561D02*
X99208646Y-136848609D01*
X99208646Y-136848609D02*
X99256265Y-136753371D01*
X99256265Y-136753371D02*
X99351503Y-136705752D01*
X99351503Y-136705752D02*
X99541979Y-136705752D01*
X99541979Y-136705752D02*
X99637217Y-136753371D01*
X99637217Y-136753371D02*
X99684836Y-136848609D01*
X99684836Y-136848609D02*
X99684836Y-136943847D01*
X99684836Y-136943847D02*
X99208646Y-137039085D01*
D11*
X99907200Y-132833332D02*
X99954819Y-132690475D01*
X99954819Y-132690475D02*
X99954819Y-132452380D01*
X99954819Y-132452380D02*
X99907200Y-132357142D01*
X99907200Y-132357142D02*
X99859580Y-132309523D01*
X99859580Y-132309523D02*
X99764342Y-132261904D01*
X99764342Y-132261904D02*
X99669104Y-132261904D01*
X99669104Y-132261904D02*
X99573866Y-132309523D01*
X99573866Y-132309523D02*
X99526247Y-132357142D01*
X99526247Y-132357142D02*
X99478628Y-132452380D01*
X99478628Y-132452380D02*
X99431009Y-132642856D01*
X99431009Y-132642856D02*
X99383390Y-132738094D01*
X99383390Y-132738094D02*
X99335771Y-132785713D01*
X99335771Y-132785713D02*
X99240533Y-132833332D01*
X99240533Y-132833332D02*
X99145295Y-132833332D01*
X99145295Y-132833332D02*
X99050057Y-132785713D01*
X99050057Y-132785713D02*
X99002438Y-132738094D01*
X99002438Y-132738094D02*
X98954819Y-132642856D01*
X98954819Y-132642856D02*
X98954819Y-132404761D01*
X98954819Y-132404761D02*
X99002438Y-132261904D01*
X98954819Y-131928570D02*
X99954819Y-131690475D01*
X99954819Y-131690475D02*
X99240533Y-131499999D01*
X99240533Y-131499999D02*
X99954819Y-131309523D01*
X99954819Y-131309523D02*
X98954819Y-131071428D01*
X98954819Y-130785713D02*
X98954819Y-130119047D01*
X98954819Y-130119047D02*
X99954819Y-130547618D01*
X115626666Y-116054819D02*
X115626666Y-116769104D01*
X115626666Y-116769104D02*
X115579047Y-116911961D01*
X115579047Y-116911961D02*
X115483809Y-117007200D01*
X115483809Y-117007200D02*
X115340952Y-117054819D01*
X115340952Y-117054819D02*
X115245714Y-117054819D01*
X116626666Y-117054819D02*
X116055238Y-117054819D01*
X116340952Y-117054819D02*
X116340952Y-116054819D01*
X116340952Y-116054819D02*
X116245714Y-116197676D01*
X116245714Y-116197676D02*
X116150476Y-116292914D01*
X116150476Y-116292914D02*
X116055238Y-116340533D01*
X129491905Y-113494819D02*
X129491905Y-112494819D01*
X129491905Y-112494819D02*
X129730000Y-112494819D01*
X129730000Y-112494819D02*
X129872857Y-112542438D01*
X129872857Y-112542438D02*
X129968095Y-112637676D01*
X129968095Y-112637676D02*
X130015714Y-112732914D01*
X130015714Y-112732914D02*
X130063333Y-112923390D01*
X130063333Y-112923390D02*
X130063333Y-113066247D01*
X130063333Y-113066247D02*
X130015714Y-113256723D01*
X130015714Y-113256723D02*
X129968095Y-113351961D01*
X129968095Y-113351961D02*
X129872857Y-113447200D01*
X129872857Y-113447200D02*
X129730000Y-113494819D01*
X129730000Y-113494819D02*
X129491905Y-113494819D01*
X130444286Y-112590057D02*
X130491905Y-112542438D01*
X130491905Y-112542438D02*
X130587143Y-112494819D01*
X130587143Y-112494819D02*
X130825238Y-112494819D01*
X130825238Y-112494819D02*
X130920476Y-112542438D01*
X130920476Y-112542438D02*
X130968095Y-112590057D01*
X130968095Y-112590057D02*
X131015714Y-112685295D01*
X131015714Y-112685295D02*
X131015714Y-112780533D01*
X131015714Y-112780533D02*
X130968095Y-112923390D01*
X130968095Y-112923390D02*
X130396667Y-113494819D01*
X130396667Y-113494819D02*
X131015714Y-113494819D01*
D12*
X127497485Y-134811833D02*
X128217152Y-134811833D01*
X128217152Y-134811833D02*
X128301818Y-134769500D01*
X128301818Y-134769500D02*
X128344152Y-134727166D01*
X128344152Y-134727166D02*
X128386485Y-134642500D01*
X128386485Y-134642500D02*
X128386485Y-134473166D01*
X128386485Y-134473166D02*
X128344152Y-134388500D01*
X128344152Y-134388500D02*
X128301818Y-134346166D01*
X128301818Y-134346166D02*
X128217152Y-134303833D01*
X128217152Y-134303833D02*
X127497485Y-134303833D01*
X128386485Y-133414833D02*
X128386485Y-133922833D01*
X128386485Y-133668833D02*
X127497485Y-133668833D01*
X127497485Y-133668833D02*
X127624485Y-133753500D01*
X127624485Y-133753500D02*
X127709152Y-133838167D01*
X127709152Y-133838167D02*
X127751485Y-133922833D01*
D13*
X119067331Y-136912170D02*
X119096359Y-136825085D01*
X119096359Y-136825085D02*
X119096359Y-136679942D01*
X119096359Y-136679942D02*
X119067331Y-136621885D01*
X119067331Y-136621885D02*
X119038302Y-136592856D01*
X119038302Y-136592856D02*
X118980245Y-136563827D01*
X118980245Y-136563827D02*
X118922188Y-136563827D01*
X118922188Y-136563827D02*
X118864131Y-136592856D01*
X118864131Y-136592856D02*
X118835102Y-136621885D01*
X118835102Y-136621885D02*
X118806073Y-136679942D01*
X118806073Y-136679942D02*
X118777045Y-136796056D01*
X118777045Y-136796056D02*
X118748016Y-136854113D01*
X118748016Y-136854113D02*
X118718988Y-136883142D01*
X118718988Y-136883142D02*
X118660931Y-136912170D01*
X118660931Y-136912170D02*
X118602873Y-136912170D01*
X118602873Y-136912170D02*
X118544816Y-136883142D01*
X118544816Y-136883142D02*
X118515788Y-136854113D01*
X118515788Y-136854113D02*
X118486759Y-136796056D01*
X118486759Y-136796056D02*
X118486759Y-136650913D01*
X118486759Y-136650913D02*
X118515788Y-136563827D01*
X119067331Y-136070342D02*
X119096359Y-136128399D01*
X119096359Y-136128399D02*
X119096359Y-136244514D01*
X119096359Y-136244514D02*
X119067331Y-136302571D01*
X119067331Y-136302571D02*
X119009273Y-136331599D01*
X119009273Y-136331599D02*
X118777045Y-136331599D01*
X118777045Y-136331599D02*
X118718988Y-136302571D01*
X118718988Y-136302571D02*
X118689959Y-136244514D01*
X118689959Y-136244514D02*
X118689959Y-136128399D01*
X118689959Y-136128399D02*
X118718988Y-136070342D01*
X118718988Y-136070342D02*
X118777045Y-136041314D01*
X118777045Y-136041314D02*
X118835102Y-136041314D01*
X118835102Y-136041314D02*
X118893159Y-136331599D01*
X119067331Y-135547828D02*
X119096359Y-135605885D01*
X119096359Y-135605885D02*
X119096359Y-135722000D01*
X119096359Y-135722000D02*
X119067331Y-135780057D01*
X119067331Y-135780057D02*
X119009273Y-135809085D01*
X119009273Y-135809085D02*
X118777045Y-135809085D01*
X118777045Y-135809085D02*
X118718988Y-135780057D01*
X118718988Y-135780057D02*
X118689959Y-135722000D01*
X118689959Y-135722000D02*
X118689959Y-135605885D01*
X118689959Y-135605885D02*
X118718988Y-135547828D01*
X118718988Y-135547828D02*
X118777045Y-135518800D01*
X118777045Y-135518800D02*
X118835102Y-135518800D01*
X118835102Y-135518800D02*
X118893159Y-135809085D01*
X119067331Y-135025314D02*
X119096359Y-135083371D01*
X119096359Y-135083371D02*
X119096359Y-135199486D01*
X119096359Y-135199486D02*
X119067331Y-135257543D01*
X119067331Y-135257543D02*
X119009273Y-135286571D01*
X119009273Y-135286571D02*
X118777045Y-135286571D01*
X118777045Y-135286571D02*
X118718988Y-135257543D01*
X118718988Y-135257543D02*
X118689959Y-135199486D01*
X118689959Y-135199486D02*
X118689959Y-135083371D01*
X118689959Y-135083371D02*
X118718988Y-135025314D01*
X118718988Y-135025314D02*
X118777045Y-134996286D01*
X118777045Y-134996286D02*
X118835102Y-134996286D01*
X118835102Y-134996286D02*
X118893159Y-135286571D01*
X119096359Y-134473772D02*
X118486759Y-134473772D01*
X119067331Y-134473772D02*
X119096359Y-134531829D01*
X119096359Y-134531829D02*
X119096359Y-134647943D01*
X119096359Y-134647943D02*
X119067331Y-134706000D01*
X119067331Y-134706000D02*
X119038302Y-134735029D01*
X119038302Y-134735029D02*
X118980245Y-134764057D01*
X118980245Y-134764057D02*
X118806073Y-134764057D01*
X118806073Y-134764057D02*
X118748016Y-134735029D01*
X118748016Y-134735029D02*
X118718988Y-134706000D01*
X118718988Y-134706000D02*
X118689959Y-134647943D01*
X118689959Y-134647943D02*
X118689959Y-134531829D01*
X118689959Y-134531829D02*
X118718988Y-134473772D01*
X118689959Y-133922229D02*
X119096359Y-133922229D01*
X118689959Y-134183486D02*
X119009273Y-134183486D01*
X119009273Y-134183486D02*
X119067331Y-134154457D01*
X119067331Y-134154457D02*
X119096359Y-134096400D01*
X119096359Y-134096400D02*
X119096359Y-134009314D01*
X119096359Y-134009314D02*
X119067331Y-133951257D01*
X119067331Y-133951257D02*
X119038302Y-133922229D01*
X119096359Y-133631943D02*
X118689959Y-133631943D01*
X118486759Y-133631943D02*
X118515788Y-133660971D01*
X118515788Y-133660971D02*
X118544816Y-133631943D01*
X118544816Y-133631943D02*
X118515788Y-133602914D01*
X118515788Y-133602914D02*
X118486759Y-133631943D01*
X118486759Y-133631943D02*
X118544816Y-133631943D01*
X118689959Y-133341657D02*
X119096359Y-133341657D01*
X118748016Y-133341657D02*
X118718988Y-133312628D01*
X118718988Y-133312628D02*
X118689959Y-133254571D01*
X118689959Y-133254571D02*
X118689959Y-133167485D01*
X118689959Y-133167485D02*
X118718988Y-133109428D01*
X118718988Y-133109428D02*
X118777045Y-133080400D01*
X118777045Y-133080400D02*
X119096359Y-133080400D01*
X119096359Y-132703028D02*
X119067331Y-132761085D01*
X119067331Y-132761085D02*
X119038302Y-132790114D01*
X119038302Y-132790114D02*
X118980245Y-132819142D01*
X118980245Y-132819142D02*
X118806073Y-132819142D01*
X118806073Y-132819142D02*
X118748016Y-132790114D01*
X118748016Y-132790114D02*
X118718988Y-132761085D01*
X118718988Y-132761085D02*
X118689959Y-132703028D01*
X118689959Y-132703028D02*
X118689959Y-132615942D01*
X118689959Y-132615942D02*
X118718988Y-132557885D01*
X118718988Y-132557885D02*
X118748016Y-132528857D01*
X118748016Y-132528857D02*
X118806073Y-132499828D01*
X118806073Y-132499828D02*
X118980245Y-132499828D01*
X118980245Y-132499828D02*
X119038302Y-132528857D01*
X119038302Y-132528857D02*
X119067331Y-132557885D01*
X119067331Y-132557885D02*
X119096359Y-132615942D01*
X119096359Y-132615942D02*
X119096359Y-132703028D01*
X118486759Y-132296628D02*
X119096359Y-131890228D01*
X118486759Y-131890228D02*
X119096359Y-132296628D01*
X119096359Y-131658000D02*
X118486759Y-131658000D01*
X118922188Y-131396742D02*
X118922188Y-131106457D01*
X119096359Y-131454799D02*
X118486759Y-131251599D01*
X118486759Y-131251599D02*
X119096359Y-131048399D01*
X118486759Y-130729085D02*
X118486759Y-130612971D01*
X118486759Y-130612971D02*
X118515788Y-130554914D01*
X118515788Y-130554914D02*
X118573845Y-130496857D01*
X118573845Y-130496857D02*
X118689959Y-130467828D01*
X118689959Y-130467828D02*
X118893159Y-130467828D01*
X118893159Y-130467828D02*
X119009273Y-130496857D01*
X119009273Y-130496857D02*
X119067331Y-130554914D01*
X119067331Y-130554914D02*
X119096359Y-130612971D01*
X119096359Y-130612971D02*
X119096359Y-130729085D01*
X119096359Y-130729085D02*
X119067331Y-130787143D01*
X119067331Y-130787143D02*
X119009273Y-130845200D01*
X119009273Y-130845200D02*
X118893159Y-130874228D01*
X118893159Y-130874228D02*
X118689959Y-130874228D01*
X118689959Y-130874228D02*
X118573845Y-130845200D01*
X118573845Y-130845200D02*
X118515788Y-130787143D01*
X118515788Y-130787143D02*
X118486759Y-130729085D01*
D11*
X99333333Y-124324819D02*
X99000000Y-123848628D01*
X98761905Y-124324819D02*
X98761905Y-123324819D01*
X98761905Y-123324819D02*
X99142857Y-123324819D01*
X99142857Y-123324819D02*
X99238095Y-123372438D01*
X99238095Y-123372438D02*
X99285714Y-123420057D01*
X99285714Y-123420057D02*
X99333333Y-123515295D01*
X99333333Y-123515295D02*
X99333333Y-123658152D01*
X99333333Y-123658152D02*
X99285714Y-123753390D01*
X99285714Y-123753390D02*
X99238095Y-123801009D01*
X99238095Y-123801009D02*
X99142857Y-123848628D01*
X99142857Y-123848628D02*
X98761905Y-123848628D01*
X100285714Y-124324819D02*
X99714286Y-124324819D01*
X100000000Y-124324819D02*
X100000000Y-123324819D01*
X100000000Y-123324819D02*
X99904762Y-123467676D01*
X99904762Y-123467676D02*
X99809524Y-123562914D01*
X99809524Y-123562914D02*
X99714286Y-123610533D01*
X101584819Y-114666666D02*
X101108628Y-114999999D01*
X101584819Y-115238094D02*
X100584819Y-115238094D01*
X100584819Y-115238094D02*
X100584819Y-114857142D01*
X100584819Y-114857142D02*
X100632438Y-114761904D01*
X100632438Y-114761904D02*
X100680057Y-114714285D01*
X100680057Y-114714285D02*
X100775295Y-114666666D01*
X100775295Y-114666666D02*
X100918152Y-114666666D01*
X100918152Y-114666666D02*
X101013390Y-114714285D01*
X101013390Y-114714285D02*
X101061009Y-114761904D01*
X101061009Y-114761904D02*
X101108628Y-114857142D01*
X101108628Y-114857142D02*
X101108628Y-115238094D01*
X100680057Y-114285713D02*
X100632438Y-114238094D01*
X100632438Y-114238094D02*
X100584819Y-114142856D01*
X100584819Y-114142856D02*
X100584819Y-113904761D01*
X100584819Y-113904761D02*
X100632438Y-113809523D01*
X100632438Y-113809523D02*
X100680057Y-113761904D01*
X100680057Y-113761904D02*
X100775295Y-113714285D01*
X100775295Y-113714285D02*
X100870533Y-113714285D01*
X100870533Y-113714285D02*
X101013390Y-113761904D01*
X101013390Y-113761904D02*
X101584819Y-114333332D01*
X101584819Y-114333332D02*
X101584819Y-113714285D01*
X114666667Y-147907200D02*
X114809524Y-147954819D01*
X114809524Y-147954819D02*
X115047619Y-147954819D01*
X115047619Y-147954819D02*
X115142857Y-147907200D01*
X115142857Y-147907200D02*
X115190476Y-147859580D01*
X115190476Y-147859580D02*
X115238095Y-147764342D01*
X115238095Y-147764342D02*
X115238095Y-147669104D01*
X115238095Y-147669104D02*
X115190476Y-147573866D01*
X115190476Y-147573866D02*
X115142857Y-147526247D01*
X115142857Y-147526247D02*
X115047619Y-147478628D01*
X115047619Y-147478628D02*
X114857143Y-147431009D01*
X114857143Y-147431009D02*
X114761905Y-147383390D01*
X114761905Y-147383390D02*
X114714286Y-147335771D01*
X114714286Y-147335771D02*
X114666667Y-147240533D01*
X114666667Y-147240533D02*
X114666667Y-147145295D01*
X114666667Y-147145295D02*
X114714286Y-147050057D01*
X114714286Y-147050057D02*
X114761905Y-147002438D01*
X114761905Y-147002438D02*
X114857143Y-146954819D01*
X114857143Y-146954819D02*
X115095238Y-146954819D01*
X115095238Y-146954819D02*
X115238095Y-147002438D01*
X115571429Y-146954819D02*
X115809524Y-147954819D01*
X115809524Y-147954819D02*
X116000000Y-147240533D01*
X116000000Y-147240533D02*
X116190476Y-147954819D01*
X116190476Y-147954819D02*
X116428572Y-146954819D01*
X117285714Y-146954819D02*
X116809524Y-146954819D01*
X116809524Y-146954819D02*
X116761905Y-147431009D01*
X116761905Y-147431009D02*
X116809524Y-147383390D01*
X116809524Y-147383390D02*
X116904762Y-147335771D01*
X116904762Y-147335771D02*
X117142857Y-147335771D01*
X117142857Y-147335771D02*
X117238095Y-147383390D01*
X117238095Y-147383390D02*
X117285714Y-147431009D01*
X117285714Y-147431009D02*
X117333333Y-147526247D01*
X117333333Y-147526247D02*
X117333333Y-147764342D01*
X117333333Y-147764342D02*
X117285714Y-147859580D01*
X117285714Y-147859580D02*
X117238095Y-147907200D01*
X117238095Y-147907200D02*
X117142857Y-147954819D01*
X117142857Y-147954819D02*
X116904762Y-147954819D01*
X116904762Y-147954819D02*
X116809524Y-147907200D01*
X116809524Y-147907200D02*
X116761905Y-147859580D01*
X103166667Y-146407200D02*
X103309524Y-146454819D01*
X103309524Y-146454819D02*
X103547619Y-146454819D01*
X103547619Y-146454819D02*
X103642857Y-146407200D01*
X103642857Y-146407200D02*
X103690476Y-146359580D01*
X103690476Y-146359580D02*
X103738095Y-146264342D01*
X103738095Y-146264342D02*
X103738095Y-146169104D01*
X103738095Y-146169104D02*
X103690476Y-146073866D01*
X103690476Y-146073866D02*
X103642857Y-146026247D01*
X103642857Y-146026247D02*
X103547619Y-145978628D01*
X103547619Y-145978628D02*
X103357143Y-145931009D01*
X103357143Y-145931009D02*
X103261905Y-145883390D01*
X103261905Y-145883390D02*
X103214286Y-145835771D01*
X103214286Y-145835771D02*
X103166667Y-145740533D01*
X103166667Y-145740533D02*
X103166667Y-145645295D01*
X103166667Y-145645295D02*
X103214286Y-145550057D01*
X103214286Y-145550057D02*
X103261905Y-145502438D01*
X103261905Y-145502438D02*
X103357143Y-145454819D01*
X103357143Y-145454819D02*
X103595238Y-145454819D01*
X103595238Y-145454819D02*
X103738095Y-145502438D01*
X104071429Y-145454819D02*
X104309524Y-146454819D01*
X104309524Y-146454819D02*
X104500000Y-145740533D01*
X104500000Y-145740533D02*
X104690476Y-146454819D01*
X104690476Y-146454819D02*
X104928572Y-145454819D01*
X105738095Y-145788152D02*
X105738095Y-146454819D01*
X105500000Y-145407200D02*
X105261905Y-146121485D01*
X105261905Y-146121485D02*
X105880952Y-146121485D01*
X125916667Y-145907200D02*
X126059524Y-145954819D01*
X126059524Y-145954819D02*
X126297619Y-145954819D01*
X126297619Y-145954819D02*
X126392857Y-145907200D01*
X126392857Y-145907200D02*
X126440476Y-145859580D01*
X126440476Y-145859580D02*
X126488095Y-145764342D01*
X126488095Y-145764342D02*
X126488095Y-145669104D01*
X126488095Y-145669104D02*
X126440476Y-145573866D01*
X126440476Y-145573866D02*
X126392857Y-145526247D01*
X126392857Y-145526247D02*
X126297619Y-145478628D01*
X126297619Y-145478628D02*
X126107143Y-145431009D01*
X126107143Y-145431009D02*
X126011905Y-145383390D01*
X126011905Y-145383390D02*
X125964286Y-145335771D01*
X125964286Y-145335771D02*
X125916667Y-145240533D01*
X125916667Y-145240533D02*
X125916667Y-145145295D01*
X125916667Y-145145295D02*
X125964286Y-145050057D01*
X125964286Y-145050057D02*
X126011905Y-145002438D01*
X126011905Y-145002438D02*
X126107143Y-144954819D01*
X126107143Y-144954819D02*
X126345238Y-144954819D01*
X126345238Y-144954819D02*
X126488095Y-145002438D01*
X126821429Y-144954819D02*
X127059524Y-145954819D01*
X127059524Y-145954819D02*
X127250000Y-145240533D01*
X127250000Y-145240533D02*
X127440476Y-145954819D01*
X127440476Y-145954819D02*
X127678572Y-144954819D01*
X128488095Y-144954819D02*
X128297619Y-144954819D01*
X128297619Y-144954819D02*
X128202381Y-145002438D01*
X128202381Y-145002438D02*
X128154762Y-145050057D01*
X128154762Y-145050057D02*
X128059524Y-145192914D01*
X128059524Y-145192914D02*
X128011905Y-145383390D01*
X128011905Y-145383390D02*
X128011905Y-145764342D01*
X128011905Y-145764342D02*
X128059524Y-145859580D01*
X128059524Y-145859580D02*
X128107143Y-145907200D01*
X128107143Y-145907200D02*
X128202381Y-145954819D01*
X128202381Y-145954819D02*
X128392857Y-145954819D01*
X128392857Y-145954819D02*
X128488095Y-145907200D01*
X128488095Y-145907200D02*
X128535714Y-145859580D01*
X128535714Y-145859580D02*
X128583333Y-145764342D01*
X128583333Y-145764342D02*
X128583333Y-145526247D01*
X128583333Y-145526247D02*
X128535714Y-145431009D01*
X128535714Y-145431009D02*
X128488095Y-145383390D01*
X128488095Y-145383390D02*
X128392857Y-145335771D01*
X128392857Y-145335771D02*
X128202381Y-145335771D01*
X128202381Y-145335771D02*
X128107143Y-145383390D01*
X128107143Y-145383390D02*
X128059524Y-145431009D01*
X128059524Y-145431009D02*
X128011905Y-145526247D01*
X97756905Y-110494819D02*
X97756905Y-109494819D01*
X97756905Y-109494819D02*
X97995000Y-109494819D01*
X97995000Y-109494819D02*
X98137857Y-109542438D01*
X98137857Y-109542438D02*
X98233095Y-109637676D01*
X98233095Y-109637676D02*
X98280714Y-109732914D01*
X98280714Y-109732914D02*
X98328333Y-109923390D01*
X98328333Y-109923390D02*
X98328333Y-110066247D01*
X98328333Y-110066247D02*
X98280714Y-110256723D01*
X98280714Y-110256723D02*
X98233095Y-110351961D01*
X98233095Y-110351961D02*
X98137857Y-110447200D01*
X98137857Y-110447200D02*
X97995000Y-110494819D01*
X97995000Y-110494819D02*
X97756905Y-110494819D01*
X99280714Y-110494819D02*
X98709286Y-110494819D01*
X98995000Y-110494819D02*
X98995000Y-109494819D01*
X98995000Y-109494819D02*
X98899762Y-109637676D01*
X98899762Y-109637676D02*
X98804524Y-109732914D01*
X98804524Y-109732914D02*
X98709286Y-109780533D01*
D14*
%TO.C,SW7*%
X97000000Y-134750000D02*
X98500000Y-134750000D01*
X101000000Y-133500000D02*
X101000000Y-129000000D01*
X94500000Y-129000000D02*
X94500000Y-133500000D01*
X98500000Y-127750000D02*
X97000000Y-127750000D01*
%TO.C,J1*%
X119910000Y-123400000D02*
X112110000Y-123400000D01*
X119910000Y-117350000D02*
X119910000Y-123400000D01*
X118540000Y-122290000D02*
X118540000Y-123300000D01*
X113460000Y-123300000D02*
X113460000Y-122290000D01*
X113460000Y-122290000D02*
X118540000Y-122290000D01*
X112110000Y-123400000D02*
X112110000Y-117350000D01*
X112110000Y-117350000D02*
X119910000Y-117350000D01*
%TO.C,D2*%
X128170000Y-115101000D02*
X128170000Y-115420000D01*
X128170000Y-117580000D02*
X128170000Y-117899000D01*
X128170000Y-115101251D02*
G75*
G02*
X132473242Y-115419276I2060000J-1398749D01*
G01*
X128546670Y-115420000D02*
G75*
G02*
X131912713Y-115419039I1683330J-1080000D01*
G01*
X131912713Y-117580961D02*
G75*
G02*
X128546670Y-117580000I-1682713J1080961D01*
G01*
X132473242Y-117580724D02*
G75*
G02*
X128170000Y-117898749I-2243242J1080724D01*
G01*
%TO.C,U1*%
D15*
X124488000Y-123911000D02*
G75*
G02*
X124234000Y-123911000I-127000J0D01*
G01*
X124234000Y-123911000D02*
G75*
G02*
X124488000Y-123911000I127000J0D01*
G01*
D16*
X128623120Y-138193420D02*
X121269820Y-138193420D01*
X128623120Y-129199280D02*
X128623120Y-138193420D01*
D17*
X127282000Y-137119000D02*
X127282000Y-138897000D01*
X127282000Y-128483000D02*
X127282000Y-130261000D01*
D16*
X127198180Y-142597780D02*
X127198180Y-125470560D01*
X127198180Y-125470560D02*
X126527620Y-124800000D01*
X126527620Y-124800000D02*
X106200000Y-124800000D01*
D17*
X126520000Y-131150000D02*
X126520000Y-136230000D01*
X124615000Y-138897000D02*
X127282000Y-138897000D01*
X124615000Y-137119000D02*
X127282000Y-137119000D01*
X124615000Y-137119000D02*
X124615000Y-138897000D01*
X124615000Y-130261000D02*
X127282000Y-130261000D01*
X124615000Y-128483000D02*
X127282000Y-128483000D01*
X124615000Y-128483000D02*
X124615000Y-130261000D01*
X123980000Y-136230000D02*
X126520000Y-136230000D01*
X123980000Y-131150000D02*
X126520000Y-131150000D01*
X123980000Y-131150000D02*
X123980000Y-136230000D01*
X123218000Y-137119000D02*
X123218000Y-138897000D01*
X123218000Y-128483000D02*
X123218000Y-130261000D01*
D16*
X121269820Y-138193420D02*
X121269820Y-129194200D01*
X121269820Y-129194200D02*
X128623120Y-129194200D01*
D17*
X120548460Y-138897000D02*
X123218000Y-138897000D01*
X120548460Y-137119000D02*
X123218000Y-137119000D01*
X120548460Y-137119000D02*
X120548460Y-138897000D01*
X120548460Y-130261000D02*
X123218000Y-130261000D01*
X120548460Y-128483000D02*
X123218000Y-128483000D01*
X120548460Y-128483000D02*
X120548460Y-130261000D01*
X109375000Y-131150000D02*
X109375000Y-136865000D01*
X106835000Y-136865000D02*
X109375000Y-136865000D01*
X106835000Y-131150000D02*
X109375000Y-131150000D01*
X106835000Y-131150000D02*
X106835000Y-136865000D01*
D16*
X106200000Y-142597780D02*
X127198180Y-142597780D01*
X106200000Y-124800000D02*
X106200000Y-142597780D01*
D14*
%TO.C,R1*%
X96230000Y-120130000D02*
X96230000Y-120460000D01*
X96230000Y-122870000D02*
X96230000Y-122540000D01*
X102770000Y-120130000D02*
X96230000Y-120130000D01*
X102770000Y-120460000D02*
X102770000Y-120130000D01*
X102770000Y-122540000D02*
X102770000Y-122870000D01*
X102770000Y-122870000D02*
X96230000Y-122870000D01*
%TO.C,R2*%
X104870000Y-111230000D02*
X104540000Y-111230000D01*
X102130000Y-111230000D02*
X102460000Y-111230000D01*
X104870000Y-117770000D02*
X104870000Y-111230000D01*
X104540000Y-117770000D02*
X104870000Y-117770000D01*
X102460000Y-117770000D02*
X102130000Y-117770000D01*
X102130000Y-117770000D02*
X102130000Y-111230000D01*
D18*
%TO.C,X1*%
X110947000Y-153821000D02*
G75*
G02*
X108947000Y-153821000I-1000000J0D01*
G01*
X108947000Y-153821000D02*
G75*
G02*
X110947000Y-153821000I1000000J0D01*
G01*
D14*
%TO.C,SW5*%
X119500000Y-150500000D02*
X119500000Y-149000000D01*
X118250000Y-146500000D02*
X113750000Y-146500000D01*
X113750000Y-153000000D02*
X118250000Y-153000000D01*
X112500000Y-149000000D02*
X112500000Y-150500000D01*
%TO.C,SW4*%
X108000000Y-148000000D02*
X108000000Y-146500000D01*
X106750000Y-144000000D02*
X102250000Y-144000000D01*
X102250000Y-150500000D02*
X106750000Y-150500000D01*
X101000000Y-146500000D02*
X101000000Y-148000000D01*
%TO.C,SW6*%
X130750000Y-148250000D02*
X130750000Y-146750000D01*
X129500000Y-144250000D02*
X125000000Y-144250000D01*
X125000000Y-150750000D02*
X129500000Y-150750000D01*
X123750000Y-146750000D02*
X123750000Y-148250000D01*
%TO.C,D1*%
X96435000Y-112101000D02*
X96435000Y-112420000D01*
X96435000Y-114580000D02*
X96435000Y-114899000D01*
X96435000Y-112101251D02*
G75*
G02*
X100738242Y-112419276I2060000J-1398749D01*
G01*
X96811670Y-112420000D02*
G75*
G02*
X100177713Y-112419039I1683330J-1080000D01*
G01*
X100177713Y-114580961D02*
G75*
G02*
X96811670Y-114580000I-1682713J1080961D01*
G01*
X100738242Y-114580724D02*
G75*
G02*
X96435000Y-114898749I-2243242J1080724D01*
G01*
%TD*%
M02*
