%TF.GenerationSoftware,KiCad,Pcbnew,8.0.6*%
%TF.CreationDate,2025-01-13T20:16:21-05:00*%
%TF.ProjectId,TamaBadge,54616d61-4261-4646-9765-2e6b69636164,rev?*%
%TF.SameCoordinates,Original*%
%TF.FileFunction,Legend,Bot*%
%TF.FilePolarity,Positive*%
%FSLAX46Y46*%
G04 Gerber Fmt 4.6, Leading zero omitted, Abs format (unit mm)*
G04 Created by KiCad (PCBNEW 8.0.6) date 2025-01-13 20:16:21*
%MOMM*%
%LPD*%
G01*
G04 APERTURE LIST*
%ADD10C,0.200000*%
%ADD11C,0.150000*%
%ADD12C,0.000000*%
%ADD13C,0.700000*%
G04 APERTURE END LIST*
D10*
X119543422Y-143146742D02*
X119543422Y-141946742D01*
X119543422Y-143089600D02*
X119657707Y-143146742D01*
X119657707Y-143146742D02*
X119886279Y-143146742D01*
X119886279Y-143146742D02*
X120000564Y-143089600D01*
X120000564Y-143089600D02*
X120057707Y-143032457D01*
X120057707Y-143032457D02*
X120114850Y-142918171D01*
X120114850Y-142918171D02*
X120114850Y-142575314D01*
X120114850Y-142575314D02*
X120057707Y-142461028D01*
X120057707Y-142461028D02*
X120000564Y-142403885D01*
X120000564Y-142403885D02*
X119886279Y-142346742D01*
X119886279Y-142346742D02*
X119657707Y-142346742D01*
X119657707Y-142346742D02*
X119543422Y-142403885D01*
X118457708Y-143146742D02*
X118457708Y-142518171D01*
X118457708Y-142518171D02*
X118514850Y-142403885D01*
X118514850Y-142403885D02*
X118629136Y-142346742D01*
X118629136Y-142346742D02*
X118857708Y-142346742D01*
X118857708Y-142346742D02*
X118971993Y-142403885D01*
X118457708Y-143089600D02*
X118571993Y-143146742D01*
X118571993Y-143146742D02*
X118857708Y-143146742D01*
X118857708Y-143146742D02*
X118971993Y-143089600D01*
X118971993Y-143089600D02*
X119029136Y-142975314D01*
X119029136Y-142975314D02*
X119029136Y-142861028D01*
X119029136Y-142861028D02*
X118971993Y-142746742D01*
X118971993Y-142746742D02*
X118857708Y-142689600D01*
X118857708Y-142689600D02*
X118571993Y-142689600D01*
X118571993Y-142689600D02*
X118457708Y-142632457D01*
X117886279Y-142346742D02*
X117886279Y-143146742D01*
X117886279Y-142461028D02*
X117829136Y-142403885D01*
X117829136Y-142403885D02*
X117714851Y-142346742D01*
X117714851Y-142346742D02*
X117543422Y-142346742D01*
X117543422Y-142346742D02*
X117429136Y-142403885D01*
X117429136Y-142403885D02*
X117371994Y-142518171D01*
X117371994Y-142518171D02*
X117371994Y-143146742D01*
X116800565Y-143146742D02*
X116800565Y-142346742D01*
X116800565Y-141946742D02*
X116857708Y-142003885D01*
X116857708Y-142003885D02*
X116800565Y-142061028D01*
X116800565Y-142061028D02*
X116743422Y-142003885D01*
X116743422Y-142003885D02*
X116800565Y-141946742D01*
X116800565Y-141946742D02*
X116800565Y-142061028D01*
X116229136Y-143032457D02*
X116171993Y-143089600D01*
X116171993Y-143089600D02*
X116229136Y-143146742D01*
X116229136Y-143146742D02*
X116286279Y-143089600D01*
X116286279Y-143089600D02*
X116229136Y-143032457D01*
X116229136Y-143032457D02*
X116229136Y-143146742D01*
X115657707Y-142346742D02*
X115657707Y-143546742D01*
X115657707Y-142403885D02*
X115543422Y-142346742D01*
X115543422Y-142346742D02*
X115314850Y-142346742D01*
X115314850Y-142346742D02*
X115200564Y-142403885D01*
X115200564Y-142403885D02*
X115143422Y-142461028D01*
X115143422Y-142461028D02*
X115086279Y-142575314D01*
X115086279Y-142575314D02*
X115086279Y-142918171D01*
X115086279Y-142918171D02*
X115143422Y-143032457D01*
X115143422Y-143032457D02*
X115200564Y-143089600D01*
X115200564Y-143089600D02*
X115314850Y-143146742D01*
X115314850Y-143146742D02*
X115543422Y-143146742D01*
X115543422Y-143146742D02*
X115657707Y-143089600D01*
X114571993Y-143146742D02*
X114571993Y-142346742D01*
X114571993Y-141946742D02*
X114629136Y-142003885D01*
X114629136Y-142003885D02*
X114571993Y-142061028D01*
X114571993Y-142061028D02*
X114514850Y-142003885D01*
X114514850Y-142003885D02*
X114571993Y-141946742D01*
X114571993Y-141946742D02*
X114571993Y-142061028D01*
X114000564Y-142346742D02*
X114000564Y-143146742D01*
X114000564Y-142461028D02*
X113943421Y-142403885D01*
X113943421Y-142403885D02*
X113829136Y-142346742D01*
X113829136Y-142346742D02*
X113657707Y-142346742D01*
X113657707Y-142346742D02*
X113543421Y-142403885D01*
X113543421Y-142403885D02*
X113486279Y-142518171D01*
X113486279Y-142518171D02*
X113486279Y-143146742D01*
X112914850Y-143146742D02*
X112914850Y-141946742D01*
X112800565Y-142689600D02*
X112457707Y-143146742D01*
X112457707Y-142346742D02*
X112914850Y-142803885D01*
X111086278Y-141889600D02*
X112114850Y-143432457D01*
X110857707Y-142346742D02*
X110400564Y-142346742D01*
X110686278Y-141946742D02*
X110686278Y-142975314D01*
X110686278Y-142975314D02*
X110629135Y-143089600D01*
X110629135Y-143089600D02*
X110514850Y-143146742D01*
X110514850Y-143146742D02*
X110400564Y-143146742D01*
X109486279Y-143146742D02*
X109486279Y-142518171D01*
X109486279Y-142518171D02*
X109543421Y-142403885D01*
X109543421Y-142403885D02*
X109657707Y-142346742D01*
X109657707Y-142346742D02*
X109886279Y-142346742D01*
X109886279Y-142346742D02*
X110000564Y-142403885D01*
X109486279Y-143089600D02*
X109600564Y-143146742D01*
X109600564Y-143146742D02*
X109886279Y-143146742D01*
X109886279Y-143146742D02*
X110000564Y-143089600D01*
X110000564Y-143089600D02*
X110057707Y-142975314D01*
X110057707Y-142975314D02*
X110057707Y-142861028D01*
X110057707Y-142861028D02*
X110000564Y-142746742D01*
X110000564Y-142746742D02*
X109886279Y-142689600D01*
X109886279Y-142689600D02*
X109600564Y-142689600D01*
X109600564Y-142689600D02*
X109486279Y-142632457D01*
X108914850Y-143146742D02*
X108914850Y-142346742D01*
X108914850Y-142461028D02*
X108857707Y-142403885D01*
X108857707Y-142403885D02*
X108743422Y-142346742D01*
X108743422Y-142346742D02*
X108571993Y-142346742D01*
X108571993Y-142346742D02*
X108457707Y-142403885D01*
X108457707Y-142403885D02*
X108400565Y-142518171D01*
X108400565Y-142518171D02*
X108400565Y-143146742D01*
X108400565Y-142518171D02*
X108343422Y-142403885D01*
X108343422Y-142403885D02*
X108229136Y-142346742D01*
X108229136Y-142346742D02*
X108057707Y-142346742D01*
X108057707Y-142346742D02*
X107943422Y-142403885D01*
X107943422Y-142403885D02*
X107886279Y-142518171D01*
X107886279Y-142518171D02*
X107886279Y-143146742D01*
X106800565Y-143146742D02*
X106800565Y-142518171D01*
X106800565Y-142518171D02*
X106857707Y-142403885D01*
X106857707Y-142403885D02*
X106971993Y-142346742D01*
X106971993Y-142346742D02*
X107200565Y-142346742D01*
X107200565Y-142346742D02*
X107314850Y-142403885D01*
X106800565Y-143089600D02*
X106914850Y-143146742D01*
X106914850Y-143146742D02*
X107200565Y-143146742D01*
X107200565Y-143146742D02*
X107314850Y-143089600D01*
X107314850Y-143089600D02*
X107371993Y-142975314D01*
X107371993Y-142975314D02*
X107371993Y-142861028D01*
X107371993Y-142861028D02*
X107314850Y-142746742D01*
X107314850Y-142746742D02*
X107200565Y-142689600D01*
X107200565Y-142689600D02*
X106914850Y-142689600D01*
X106914850Y-142689600D02*
X106800565Y-142632457D01*
X106229136Y-143146742D02*
X106229136Y-141946742D01*
X106229136Y-142403885D02*
X106114851Y-142346742D01*
X106114851Y-142346742D02*
X105886279Y-142346742D01*
X105886279Y-142346742D02*
X105771993Y-142403885D01*
X105771993Y-142403885D02*
X105714851Y-142461028D01*
X105714851Y-142461028D02*
X105657708Y-142575314D01*
X105657708Y-142575314D02*
X105657708Y-142918171D01*
X105657708Y-142918171D02*
X105714851Y-143032457D01*
X105714851Y-143032457D02*
X105771993Y-143089600D01*
X105771993Y-143089600D02*
X105886279Y-143146742D01*
X105886279Y-143146742D02*
X106114851Y-143146742D01*
X106114851Y-143146742D02*
X106229136Y-143089600D01*
X104629137Y-143146742D02*
X104629137Y-142518171D01*
X104629137Y-142518171D02*
X104686279Y-142403885D01*
X104686279Y-142403885D02*
X104800565Y-142346742D01*
X104800565Y-142346742D02*
X105029137Y-142346742D01*
X105029137Y-142346742D02*
X105143422Y-142403885D01*
X104629137Y-143089600D02*
X104743422Y-143146742D01*
X104743422Y-143146742D02*
X105029137Y-143146742D01*
X105029137Y-143146742D02*
X105143422Y-143089600D01*
X105143422Y-143089600D02*
X105200565Y-142975314D01*
X105200565Y-142975314D02*
X105200565Y-142861028D01*
X105200565Y-142861028D02*
X105143422Y-142746742D01*
X105143422Y-142746742D02*
X105029137Y-142689600D01*
X105029137Y-142689600D02*
X104743422Y-142689600D01*
X104743422Y-142689600D02*
X104629137Y-142632457D01*
X103543423Y-143146742D02*
X103543423Y-141946742D01*
X103543423Y-143089600D02*
X103657708Y-143146742D01*
X103657708Y-143146742D02*
X103886280Y-143146742D01*
X103886280Y-143146742D02*
X104000565Y-143089600D01*
X104000565Y-143089600D02*
X104057708Y-143032457D01*
X104057708Y-143032457D02*
X104114851Y-142918171D01*
X104114851Y-142918171D02*
X104114851Y-142575314D01*
X104114851Y-142575314D02*
X104057708Y-142461028D01*
X104057708Y-142461028D02*
X104000565Y-142403885D01*
X104000565Y-142403885D02*
X103886280Y-142346742D01*
X103886280Y-142346742D02*
X103657708Y-142346742D01*
X103657708Y-142346742D02*
X103543423Y-142403885D01*
X102457709Y-142346742D02*
X102457709Y-143318171D01*
X102457709Y-143318171D02*
X102514851Y-143432457D01*
X102514851Y-143432457D02*
X102571994Y-143489600D01*
X102571994Y-143489600D02*
X102686280Y-143546742D01*
X102686280Y-143546742D02*
X102857709Y-143546742D01*
X102857709Y-143546742D02*
X102971994Y-143489600D01*
X102457709Y-143089600D02*
X102571994Y-143146742D01*
X102571994Y-143146742D02*
X102800566Y-143146742D01*
X102800566Y-143146742D02*
X102914851Y-143089600D01*
X102914851Y-143089600D02*
X102971994Y-143032457D01*
X102971994Y-143032457D02*
X103029137Y-142918171D01*
X103029137Y-142918171D02*
X103029137Y-142575314D01*
X103029137Y-142575314D02*
X102971994Y-142461028D01*
X102971994Y-142461028D02*
X102914851Y-142403885D01*
X102914851Y-142403885D02*
X102800566Y-142346742D01*
X102800566Y-142346742D02*
X102571994Y-142346742D01*
X102571994Y-142346742D02*
X102457709Y-142403885D01*
X101429137Y-143089600D02*
X101543423Y-143146742D01*
X101543423Y-143146742D02*
X101771995Y-143146742D01*
X101771995Y-143146742D02*
X101886280Y-143089600D01*
X101886280Y-143089600D02*
X101943423Y-142975314D01*
X101943423Y-142975314D02*
X101943423Y-142518171D01*
X101943423Y-142518171D02*
X101886280Y-142403885D01*
X101886280Y-142403885D02*
X101771995Y-142346742D01*
X101771995Y-142346742D02*
X101543423Y-142346742D01*
X101543423Y-142346742D02*
X101429137Y-142403885D01*
X101429137Y-142403885D02*
X101371995Y-142518171D01*
X101371995Y-142518171D02*
X101371995Y-142632457D01*
X101371995Y-142632457D02*
X101943423Y-142746742D01*
X137808898Y-140691980D02*
X137856517Y-140739600D01*
X137856517Y-140739600D02*
X137999374Y-140787219D01*
X137999374Y-140787219D02*
X138094612Y-140787219D01*
X138094612Y-140787219D02*
X138237469Y-140739600D01*
X138237469Y-140739600D02*
X138332707Y-140644361D01*
X138332707Y-140644361D02*
X138380326Y-140549123D01*
X138380326Y-140549123D02*
X138427945Y-140358647D01*
X138427945Y-140358647D02*
X138427945Y-140215790D01*
X138427945Y-140215790D02*
X138380326Y-140025314D01*
X138380326Y-140025314D02*
X138332707Y-139930076D01*
X138332707Y-139930076D02*
X138237469Y-139834838D01*
X138237469Y-139834838D02*
X138094612Y-139787219D01*
X138094612Y-139787219D02*
X137999374Y-139787219D01*
X137999374Y-139787219D02*
X137856517Y-139834838D01*
X137856517Y-139834838D02*
X137808898Y-139882457D01*
X137380326Y-140787219D02*
X137380326Y-140120552D01*
X137380326Y-140311028D02*
X137332707Y-140215790D01*
X137332707Y-140215790D02*
X137285088Y-140168171D01*
X137285088Y-140168171D02*
X137189850Y-140120552D01*
X137189850Y-140120552D02*
X137094612Y-140120552D01*
X136380326Y-140739600D02*
X136475564Y-140787219D01*
X136475564Y-140787219D02*
X136666040Y-140787219D01*
X136666040Y-140787219D02*
X136761278Y-140739600D01*
X136761278Y-140739600D02*
X136808897Y-140644361D01*
X136808897Y-140644361D02*
X136808897Y-140263409D01*
X136808897Y-140263409D02*
X136761278Y-140168171D01*
X136761278Y-140168171D02*
X136666040Y-140120552D01*
X136666040Y-140120552D02*
X136475564Y-140120552D01*
X136475564Y-140120552D02*
X136380326Y-140168171D01*
X136380326Y-140168171D02*
X136332707Y-140263409D01*
X136332707Y-140263409D02*
X136332707Y-140358647D01*
X136332707Y-140358647D02*
X136808897Y-140453885D01*
X135475564Y-140787219D02*
X135475564Y-140263409D01*
X135475564Y-140263409D02*
X135523183Y-140168171D01*
X135523183Y-140168171D02*
X135618421Y-140120552D01*
X135618421Y-140120552D02*
X135808897Y-140120552D01*
X135808897Y-140120552D02*
X135904135Y-140168171D01*
X135475564Y-140739600D02*
X135570802Y-140787219D01*
X135570802Y-140787219D02*
X135808897Y-140787219D01*
X135808897Y-140787219D02*
X135904135Y-140739600D01*
X135904135Y-140739600D02*
X135951754Y-140644361D01*
X135951754Y-140644361D02*
X135951754Y-140549123D01*
X135951754Y-140549123D02*
X135904135Y-140453885D01*
X135904135Y-140453885D02*
X135808897Y-140406266D01*
X135808897Y-140406266D02*
X135570802Y-140406266D01*
X135570802Y-140406266D02*
X135475564Y-140358647D01*
X135142230Y-140120552D02*
X134761278Y-140120552D01*
X134999373Y-139787219D02*
X134999373Y-140644361D01*
X134999373Y-140644361D02*
X134951754Y-140739600D01*
X134951754Y-140739600D02*
X134856516Y-140787219D01*
X134856516Y-140787219D02*
X134761278Y-140787219D01*
X134046992Y-140739600D02*
X134142230Y-140787219D01*
X134142230Y-140787219D02*
X134332706Y-140787219D01*
X134332706Y-140787219D02*
X134427944Y-140739600D01*
X134427944Y-140739600D02*
X134475563Y-140644361D01*
X134475563Y-140644361D02*
X134475563Y-140263409D01*
X134475563Y-140263409D02*
X134427944Y-140168171D01*
X134427944Y-140168171D02*
X134332706Y-140120552D01*
X134332706Y-140120552D02*
X134142230Y-140120552D01*
X134142230Y-140120552D02*
X134046992Y-140168171D01*
X134046992Y-140168171D02*
X133999373Y-140263409D01*
X133999373Y-140263409D02*
X133999373Y-140358647D01*
X133999373Y-140358647D02*
X134475563Y-140453885D01*
X133142230Y-140787219D02*
X133142230Y-139787219D01*
X133142230Y-140739600D02*
X133237468Y-140787219D01*
X133237468Y-140787219D02*
X133427944Y-140787219D01*
X133427944Y-140787219D02*
X133523182Y-140739600D01*
X133523182Y-140739600D02*
X133570801Y-140691980D01*
X133570801Y-140691980D02*
X133618420Y-140596742D01*
X133618420Y-140596742D02*
X133618420Y-140311028D01*
X133618420Y-140311028D02*
X133570801Y-140215790D01*
X133570801Y-140215790D02*
X133523182Y-140168171D01*
X133523182Y-140168171D02*
X133427944Y-140120552D01*
X133427944Y-140120552D02*
X133237468Y-140120552D01*
X133237468Y-140120552D02*
X133142230Y-140168171D01*
X131904134Y-140787219D02*
X131904134Y-139787219D01*
X131904134Y-140168171D02*
X131808896Y-140120552D01*
X131808896Y-140120552D02*
X131618420Y-140120552D01*
X131618420Y-140120552D02*
X131523182Y-140168171D01*
X131523182Y-140168171D02*
X131475563Y-140215790D01*
X131475563Y-140215790D02*
X131427944Y-140311028D01*
X131427944Y-140311028D02*
X131427944Y-140596742D01*
X131427944Y-140596742D02*
X131475563Y-140691980D01*
X131475563Y-140691980D02*
X131523182Y-140739600D01*
X131523182Y-140739600D02*
X131618420Y-140787219D01*
X131618420Y-140787219D02*
X131808896Y-140787219D01*
X131808896Y-140787219D02*
X131904134Y-140739600D01*
X131094610Y-140120552D02*
X130856515Y-140787219D01*
X130618420Y-140120552D02*
X130856515Y-140787219D01*
X130856515Y-140787219D02*
X130951753Y-141025314D01*
X130951753Y-141025314D02*
X130999372Y-141072933D01*
X130999372Y-141072933D02*
X131094610Y-141120552D01*
X129570800Y-139787219D02*
X128904134Y-139787219D01*
X128904134Y-139787219D02*
X129570800Y-140787219D01*
X129570800Y-140787219D02*
X128904134Y-140787219D01*
X128094610Y-140787219D02*
X128094610Y-140263409D01*
X128094610Y-140263409D02*
X128142229Y-140168171D01*
X128142229Y-140168171D02*
X128237467Y-140120552D01*
X128237467Y-140120552D02*
X128427943Y-140120552D01*
X128427943Y-140120552D02*
X128523181Y-140168171D01*
X128094610Y-140739600D02*
X128189848Y-140787219D01*
X128189848Y-140787219D02*
X128427943Y-140787219D01*
X128427943Y-140787219D02*
X128523181Y-140739600D01*
X128523181Y-140739600D02*
X128570800Y-140644361D01*
X128570800Y-140644361D02*
X128570800Y-140549123D01*
X128570800Y-140549123D02*
X128523181Y-140453885D01*
X128523181Y-140453885D02*
X128427943Y-140406266D01*
X128427943Y-140406266D02*
X128189848Y-140406266D01*
X128189848Y-140406266D02*
X128094610Y-140358647D01*
X127189848Y-140739600D02*
X127285086Y-140787219D01*
X127285086Y-140787219D02*
X127475562Y-140787219D01*
X127475562Y-140787219D02*
X127570800Y-140739600D01*
X127570800Y-140739600D02*
X127618419Y-140691980D01*
X127618419Y-140691980D02*
X127666038Y-140596742D01*
X127666038Y-140596742D02*
X127666038Y-140311028D01*
X127666038Y-140311028D02*
X127618419Y-140215790D01*
X127618419Y-140215790D02*
X127570800Y-140168171D01*
X127570800Y-140168171D02*
X127475562Y-140120552D01*
X127475562Y-140120552D02*
X127285086Y-140120552D01*
X127285086Y-140120552D02*
X127189848Y-140168171D01*
X126761276Y-140787219D02*
X126761276Y-139787219D01*
X126332705Y-140787219D02*
X126332705Y-140263409D01*
X126332705Y-140263409D02*
X126380324Y-140168171D01*
X126380324Y-140168171D02*
X126475562Y-140120552D01*
X126475562Y-140120552D02*
X126618419Y-140120552D01*
X126618419Y-140120552D02*
X126713657Y-140168171D01*
X126713657Y-140168171D02*
X126761276Y-140215790D01*
X124523181Y-140787219D02*
X124856514Y-140311028D01*
X125094609Y-140787219D02*
X125094609Y-139787219D01*
X125094609Y-139787219D02*
X124713657Y-139787219D01*
X124713657Y-139787219D02*
X124618419Y-139834838D01*
X124618419Y-139834838D02*
X124570800Y-139882457D01*
X124570800Y-139882457D02*
X124523181Y-139977695D01*
X124523181Y-139977695D02*
X124523181Y-140120552D01*
X124523181Y-140120552D02*
X124570800Y-140215790D01*
X124570800Y-140215790D02*
X124618419Y-140263409D01*
X124618419Y-140263409D02*
X124713657Y-140311028D01*
X124713657Y-140311028D02*
X125094609Y-140311028D01*
X123713657Y-140739600D02*
X123808895Y-140787219D01*
X123808895Y-140787219D02*
X123999371Y-140787219D01*
X123999371Y-140787219D02*
X124094609Y-140739600D01*
X124094609Y-140739600D02*
X124142228Y-140644361D01*
X124142228Y-140644361D02*
X124142228Y-140263409D01*
X124142228Y-140263409D02*
X124094609Y-140168171D01*
X124094609Y-140168171D02*
X123999371Y-140120552D01*
X123999371Y-140120552D02*
X123808895Y-140120552D01*
X123808895Y-140120552D02*
X123713657Y-140168171D01*
X123713657Y-140168171D02*
X123666038Y-140263409D01*
X123666038Y-140263409D02*
X123666038Y-140358647D01*
X123666038Y-140358647D02*
X124142228Y-140453885D01*
X123285085Y-140739600D02*
X123189847Y-140787219D01*
X123189847Y-140787219D02*
X122999371Y-140787219D01*
X122999371Y-140787219D02*
X122904133Y-140739600D01*
X122904133Y-140739600D02*
X122856514Y-140644361D01*
X122856514Y-140644361D02*
X122856514Y-140596742D01*
X122856514Y-140596742D02*
X122904133Y-140501504D01*
X122904133Y-140501504D02*
X122999371Y-140453885D01*
X122999371Y-140453885D02*
X123142228Y-140453885D01*
X123142228Y-140453885D02*
X123237466Y-140406266D01*
X123237466Y-140406266D02*
X123285085Y-140311028D01*
X123285085Y-140311028D02*
X123285085Y-140263409D01*
X123285085Y-140263409D02*
X123237466Y-140168171D01*
X123237466Y-140168171D02*
X123142228Y-140120552D01*
X123142228Y-140120552D02*
X122999371Y-140120552D01*
X122999371Y-140120552D02*
X122904133Y-140168171D01*
X122427942Y-140787219D02*
X122427942Y-140120552D01*
X122427942Y-140215790D02*
X122380323Y-140168171D01*
X122380323Y-140168171D02*
X122285085Y-140120552D01*
X122285085Y-140120552D02*
X122142228Y-140120552D01*
X122142228Y-140120552D02*
X122046990Y-140168171D01*
X122046990Y-140168171D02*
X121999371Y-140263409D01*
X121999371Y-140263409D02*
X121999371Y-140787219D01*
X121999371Y-140263409D02*
X121951752Y-140168171D01*
X121951752Y-140168171D02*
X121856514Y-140120552D01*
X121856514Y-140120552D02*
X121713657Y-140120552D01*
X121713657Y-140120552D02*
X121618418Y-140168171D01*
X121618418Y-140168171D02*
X121570799Y-140263409D01*
X121570799Y-140263409D02*
X121570799Y-140787219D01*
X120713657Y-140739600D02*
X120808895Y-140787219D01*
X120808895Y-140787219D02*
X120999371Y-140787219D01*
X120999371Y-140787219D02*
X121094609Y-140739600D01*
X121094609Y-140739600D02*
X121142228Y-140644361D01*
X121142228Y-140644361D02*
X121142228Y-140263409D01*
X121142228Y-140263409D02*
X121094609Y-140168171D01*
X121094609Y-140168171D02*
X120999371Y-140120552D01*
X120999371Y-140120552D02*
X120808895Y-140120552D01*
X120808895Y-140120552D02*
X120713657Y-140168171D01*
X120713657Y-140168171D02*
X120666038Y-140263409D01*
X120666038Y-140263409D02*
X120666038Y-140358647D01*
X120666038Y-140358647D02*
X121142228Y-140453885D01*
X120237466Y-140787219D02*
X120237466Y-140120552D01*
X120237466Y-140311028D02*
X120189847Y-140215790D01*
X120189847Y-140215790D02*
X120142228Y-140168171D01*
X120142228Y-140168171D02*
X120046990Y-140120552D01*
X120046990Y-140120552D02*
X119951752Y-140120552D01*
X137570802Y-142397163D02*
X137618422Y-142397163D01*
X137618422Y-142397163D02*
X137713660Y-142349544D01*
X137713660Y-142349544D02*
X137856517Y-142206686D01*
X137856517Y-142206686D02*
X138094612Y-141920972D01*
X138094612Y-141920972D02*
X138189850Y-141778115D01*
X138189850Y-141778115D02*
X138237469Y-141635258D01*
X138237469Y-141635258D02*
X138237469Y-141540020D01*
X138237469Y-141540020D02*
X138189850Y-141444782D01*
X138189850Y-141444782D02*
X138094612Y-141397163D01*
X138094612Y-141397163D02*
X138046993Y-141397163D01*
X138046993Y-141397163D02*
X137951755Y-141444782D01*
X137951755Y-141444782D02*
X137904136Y-141540020D01*
X137904136Y-141540020D02*
X137904136Y-141587639D01*
X137904136Y-141587639D02*
X137951755Y-141682877D01*
X137951755Y-141682877D02*
X137999374Y-141730496D01*
X137999374Y-141730496D02*
X138285088Y-141920972D01*
X138285088Y-141920972D02*
X138332707Y-141968591D01*
X138332707Y-141968591D02*
X138380326Y-142063829D01*
X138380326Y-142063829D02*
X138380326Y-142206686D01*
X138380326Y-142206686D02*
X138332707Y-142301924D01*
X138332707Y-142301924D02*
X138285088Y-142349544D01*
X138285088Y-142349544D02*
X138189850Y-142397163D01*
X138189850Y-142397163D02*
X138046993Y-142397163D01*
X138046993Y-142397163D02*
X137951755Y-142349544D01*
X137951755Y-142349544D02*
X137904136Y-142301924D01*
X137904136Y-142301924D02*
X137761279Y-142111448D01*
X137761279Y-142111448D02*
X137713660Y-141968591D01*
X137713660Y-141968591D02*
X137713660Y-141873353D01*
X136380326Y-142397163D02*
X136380326Y-141397163D01*
X136380326Y-141397163D02*
X136142231Y-141397163D01*
X136142231Y-141397163D02*
X135999374Y-141444782D01*
X135999374Y-141444782D02*
X135904136Y-141540020D01*
X135904136Y-141540020D02*
X135856517Y-141635258D01*
X135856517Y-141635258D02*
X135808898Y-141825734D01*
X135808898Y-141825734D02*
X135808898Y-141968591D01*
X135808898Y-141968591D02*
X135856517Y-142159067D01*
X135856517Y-142159067D02*
X135904136Y-142254305D01*
X135904136Y-142254305D02*
X135999374Y-142349544D01*
X135999374Y-142349544D02*
X136142231Y-142397163D01*
X136142231Y-142397163D02*
X136380326Y-142397163D01*
X134951755Y-142397163D02*
X134951755Y-141873353D01*
X134951755Y-141873353D02*
X134999374Y-141778115D01*
X134999374Y-141778115D02*
X135094612Y-141730496D01*
X135094612Y-141730496D02*
X135285088Y-141730496D01*
X135285088Y-141730496D02*
X135380326Y-141778115D01*
X134951755Y-142349544D02*
X135046993Y-142397163D01*
X135046993Y-142397163D02*
X135285088Y-142397163D01*
X135285088Y-142397163D02*
X135380326Y-142349544D01*
X135380326Y-142349544D02*
X135427945Y-142254305D01*
X135427945Y-142254305D02*
X135427945Y-142159067D01*
X135427945Y-142159067D02*
X135380326Y-142063829D01*
X135380326Y-142063829D02*
X135285088Y-142016210D01*
X135285088Y-142016210D02*
X135046993Y-142016210D01*
X135046993Y-142016210D02*
X134951755Y-141968591D01*
X134475564Y-141730496D02*
X134475564Y-142397163D01*
X134475564Y-141825734D02*
X134427945Y-141778115D01*
X134427945Y-141778115D02*
X134332707Y-141730496D01*
X134332707Y-141730496D02*
X134189850Y-141730496D01*
X134189850Y-141730496D02*
X134094612Y-141778115D01*
X134094612Y-141778115D02*
X134046993Y-141873353D01*
X134046993Y-141873353D02*
X134046993Y-142397163D01*
X133570802Y-142397163D02*
X133570802Y-141730496D01*
X133570802Y-141397163D02*
X133618421Y-141444782D01*
X133618421Y-141444782D02*
X133570802Y-141492401D01*
X133570802Y-141492401D02*
X133523183Y-141444782D01*
X133523183Y-141444782D02*
X133570802Y-141397163D01*
X133570802Y-141397163D02*
X133570802Y-141492401D01*
X132427945Y-141397163D02*
X132189850Y-142397163D01*
X132189850Y-142397163D02*
X131999374Y-141682877D01*
X131999374Y-141682877D02*
X131808898Y-142397163D01*
X131808898Y-142397163D02*
X131570803Y-141397163D01*
X130808898Y-142349544D02*
X130904136Y-142397163D01*
X130904136Y-142397163D02*
X131094612Y-142397163D01*
X131094612Y-142397163D02*
X131189850Y-142349544D01*
X131189850Y-142349544D02*
X131237469Y-142254305D01*
X131237469Y-142254305D02*
X131237469Y-141873353D01*
X131237469Y-141873353D02*
X131189850Y-141778115D01*
X131189850Y-141778115D02*
X131094612Y-141730496D01*
X131094612Y-141730496D02*
X130904136Y-141730496D01*
X130904136Y-141730496D02*
X130808898Y-141778115D01*
X130808898Y-141778115D02*
X130761279Y-141873353D01*
X130761279Y-141873353D02*
X130761279Y-141968591D01*
X130761279Y-141968591D02*
X131237469Y-142063829D01*
X130332707Y-142397163D02*
X130332707Y-141730496D01*
X130332707Y-141397163D02*
X130380326Y-141444782D01*
X130380326Y-141444782D02*
X130332707Y-141492401D01*
X130332707Y-141492401D02*
X130285088Y-141444782D01*
X130285088Y-141444782D02*
X130332707Y-141397163D01*
X130332707Y-141397163D02*
X130332707Y-141492401D01*
X129427946Y-142397163D02*
X129427946Y-141397163D01*
X129427946Y-142349544D02*
X129523184Y-142397163D01*
X129523184Y-142397163D02*
X129713660Y-142397163D01*
X129713660Y-142397163D02*
X129808898Y-142349544D01*
X129808898Y-142349544D02*
X129856517Y-142301924D01*
X129856517Y-142301924D02*
X129904136Y-142206686D01*
X129904136Y-142206686D02*
X129904136Y-141920972D01*
X129904136Y-141920972D02*
X129856517Y-141825734D01*
X129856517Y-141825734D02*
X129808898Y-141778115D01*
X129808898Y-141778115D02*
X129713660Y-141730496D01*
X129713660Y-141730496D02*
X129523184Y-141730496D01*
X129523184Y-141730496D02*
X129427946Y-141778115D01*
X128951755Y-142397163D02*
X128951755Y-141730496D01*
X128951755Y-141825734D02*
X128904136Y-141778115D01*
X128904136Y-141778115D02*
X128808898Y-141730496D01*
X128808898Y-141730496D02*
X128666041Y-141730496D01*
X128666041Y-141730496D02*
X128570803Y-141778115D01*
X128570803Y-141778115D02*
X128523184Y-141873353D01*
X128523184Y-141873353D02*
X128523184Y-142397163D01*
X128523184Y-141873353D02*
X128475565Y-141778115D01*
X128475565Y-141778115D02*
X128380327Y-141730496D01*
X128380327Y-141730496D02*
X128237470Y-141730496D01*
X128237470Y-141730496D02*
X128142231Y-141778115D01*
X128142231Y-141778115D02*
X128094612Y-141873353D01*
X128094612Y-141873353D02*
X128094612Y-142397163D01*
X127189851Y-142397163D02*
X127189851Y-141873353D01*
X127189851Y-141873353D02*
X127237470Y-141778115D01*
X127237470Y-141778115D02*
X127332708Y-141730496D01*
X127332708Y-141730496D02*
X127523184Y-141730496D01*
X127523184Y-141730496D02*
X127618422Y-141778115D01*
X127189851Y-142349544D02*
X127285089Y-142397163D01*
X127285089Y-142397163D02*
X127523184Y-142397163D01*
X127523184Y-142397163D02*
X127618422Y-142349544D01*
X127618422Y-142349544D02*
X127666041Y-142254305D01*
X127666041Y-142254305D02*
X127666041Y-142159067D01*
X127666041Y-142159067D02*
X127618422Y-142063829D01*
X127618422Y-142063829D02*
X127523184Y-142016210D01*
X127523184Y-142016210D02*
X127285089Y-142016210D01*
X127285089Y-142016210D02*
X127189851Y-141968591D01*
X126713660Y-141730496D02*
X126713660Y-142397163D01*
X126713660Y-141825734D02*
X126666041Y-141778115D01*
X126666041Y-141778115D02*
X126570803Y-141730496D01*
X126570803Y-141730496D02*
X126427946Y-141730496D01*
X126427946Y-141730496D02*
X126332708Y-141778115D01*
X126332708Y-141778115D02*
X126285089Y-141873353D01*
X126285089Y-141873353D02*
X126285089Y-142397163D01*
X137523183Y-121287219D02*
X136951755Y-121287219D01*
X137237469Y-122287219D02*
X137237469Y-121287219D01*
X136189850Y-122287219D02*
X136189850Y-121763409D01*
X136189850Y-121763409D02*
X136237469Y-121668171D01*
X136237469Y-121668171D02*
X136332707Y-121620552D01*
X136332707Y-121620552D02*
X136523183Y-121620552D01*
X136523183Y-121620552D02*
X136618421Y-121668171D01*
X136189850Y-122239600D02*
X136285088Y-122287219D01*
X136285088Y-122287219D02*
X136523183Y-122287219D01*
X136523183Y-122287219D02*
X136618421Y-122239600D01*
X136618421Y-122239600D02*
X136666040Y-122144361D01*
X136666040Y-122144361D02*
X136666040Y-122049123D01*
X136666040Y-122049123D02*
X136618421Y-121953885D01*
X136618421Y-121953885D02*
X136523183Y-121906266D01*
X136523183Y-121906266D02*
X136285088Y-121906266D01*
X136285088Y-121906266D02*
X136189850Y-121858647D01*
X135570802Y-122287219D02*
X135666040Y-122239600D01*
X135666040Y-122239600D02*
X135713659Y-122144361D01*
X135713659Y-122144361D02*
X135713659Y-121287219D01*
X135189849Y-122287219D02*
X135189849Y-121287219D01*
X135094611Y-121906266D02*
X134808897Y-122287219D01*
X134808897Y-121620552D02*
X135189849Y-122001504D01*
X133713658Y-121620552D02*
X133523182Y-122287219D01*
X133523182Y-122287219D02*
X133332706Y-121811028D01*
X133332706Y-121811028D02*
X133142230Y-122287219D01*
X133142230Y-122287219D02*
X132951754Y-121620552D01*
X132570801Y-122287219D02*
X132570801Y-121620552D01*
X132570801Y-121287219D02*
X132618420Y-121334838D01*
X132618420Y-121334838D02*
X132570801Y-121382457D01*
X132570801Y-121382457D02*
X132523182Y-121334838D01*
X132523182Y-121334838D02*
X132570801Y-121287219D01*
X132570801Y-121287219D02*
X132570801Y-121382457D01*
X132237468Y-121620552D02*
X131856516Y-121620552D01*
X132094611Y-121287219D02*
X132094611Y-122144361D01*
X132094611Y-122144361D02*
X132046992Y-122239600D01*
X132046992Y-122239600D02*
X131951754Y-122287219D01*
X131951754Y-122287219D02*
X131856516Y-122287219D01*
X131523182Y-122287219D02*
X131523182Y-121287219D01*
X131094611Y-122287219D02*
X131094611Y-121763409D01*
X131094611Y-121763409D02*
X131142230Y-121668171D01*
X131142230Y-121668171D02*
X131237468Y-121620552D01*
X131237468Y-121620552D02*
X131380325Y-121620552D01*
X131380325Y-121620552D02*
X131475563Y-121668171D01*
X131475563Y-121668171D02*
X131523182Y-121715790D01*
X129999372Y-121287219D02*
X129427944Y-121287219D01*
X129713658Y-122287219D02*
X129713658Y-121287219D01*
X128666039Y-122287219D02*
X128666039Y-121763409D01*
X128666039Y-121763409D02*
X128713658Y-121668171D01*
X128713658Y-121668171D02*
X128808896Y-121620552D01*
X128808896Y-121620552D02*
X128999372Y-121620552D01*
X128999372Y-121620552D02*
X129094610Y-121668171D01*
X128666039Y-122239600D02*
X128761277Y-122287219D01*
X128761277Y-122287219D02*
X128999372Y-122287219D01*
X128999372Y-122287219D02*
X129094610Y-122239600D01*
X129094610Y-122239600D02*
X129142229Y-122144361D01*
X129142229Y-122144361D02*
X129142229Y-122049123D01*
X129142229Y-122049123D02*
X129094610Y-121953885D01*
X129094610Y-121953885D02*
X128999372Y-121906266D01*
X128999372Y-121906266D02*
X128761277Y-121906266D01*
X128761277Y-121906266D02*
X128666039Y-121858647D01*
X128189848Y-122287219D02*
X128189848Y-121620552D01*
X128189848Y-121715790D02*
X128142229Y-121668171D01*
X128142229Y-121668171D02*
X128046991Y-121620552D01*
X128046991Y-121620552D02*
X127904134Y-121620552D01*
X127904134Y-121620552D02*
X127808896Y-121668171D01*
X127808896Y-121668171D02*
X127761277Y-121763409D01*
X127761277Y-121763409D02*
X127761277Y-122287219D01*
X127761277Y-121763409D02*
X127713658Y-121668171D01*
X127713658Y-121668171D02*
X127618420Y-121620552D01*
X127618420Y-121620552D02*
X127475563Y-121620552D01*
X127475563Y-121620552D02*
X127380324Y-121668171D01*
X127380324Y-121668171D02*
X127332705Y-121763409D01*
X127332705Y-121763409D02*
X127332705Y-122287219D01*
X126427944Y-122287219D02*
X126427944Y-121763409D01*
X126427944Y-121763409D02*
X126475563Y-121668171D01*
X126475563Y-121668171D02*
X126570801Y-121620552D01*
X126570801Y-121620552D02*
X126761277Y-121620552D01*
X126761277Y-121620552D02*
X126856515Y-121668171D01*
X126427944Y-122239600D02*
X126523182Y-122287219D01*
X126523182Y-122287219D02*
X126761277Y-122287219D01*
X126761277Y-122287219D02*
X126856515Y-122239600D01*
X126856515Y-122239600D02*
X126904134Y-122144361D01*
X126904134Y-122144361D02*
X126904134Y-122049123D01*
X126904134Y-122049123D02*
X126856515Y-121953885D01*
X126856515Y-121953885D02*
X126761277Y-121906266D01*
X126761277Y-121906266D02*
X126523182Y-121906266D01*
X126523182Y-121906266D02*
X126427944Y-121858647D01*
X125523182Y-121620552D02*
X125523182Y-122430076D01*
X125523182Y-122430076D02*
X125570801Y-122525314D01*
X125570801Y-122525314D02*
X125618420Y-122572933D01*
X125618420Y-122572933D02*
X125713658Y-122620552D01*
X125713658Y-122620552D02*
X125856515Y-122620552D01*
X125856515Y-122620552D02*
X125951753Y-122572933D01*
X125523182Y-122239600D02*
X125618420Y-122287219D01*
X125618420Y-122287219D02*
X125808896Y-122287219D01*
X125808896Y-122287219D02*
X125904134Y-122239600D01*
X125904134Y-122239600D02*
X125951753Y-122191980D01*
X125951753Y-122191980D02*
X125999372Y-122096742D01*
X125999372Y-122096742D02*
X125999372Y-121811028D01*
X125999372Y-121811028D02*
X125951753Y-121715790D01*
X125951753Y-121715790D02*
X125904134Y-121668171D01*
X125904134Y-121668171D02*
X125808896Y-121620552D01*
X125808896Y-121620552D02*
X125618420Y-121620552D01*
X125618420Y-121620552D02*
X125523182Y-121668171D01*
X124904134Y-122287219D02*
X124999372Y-122239600D01*
X124999372Y-122239600D02*
X125046991Y-122191980D01*
X125046991Y-122191980D02*
X125094610Y-122096742D01*
X125094610Y-122096742D02*
X125094610Y-121811028D01*
X125094610Y-121811028D02*
X125046991Y-121715790D01*
X125046991Y-121715790D02*
X124999372Y-121668171D01*
X124999372Y-121668171D02*
X124904134Y-121620552D01*
X124904134Y-121620552D02*
X124761277Y-121620552D01*
X124761277Y-121620552D02*
X124666039Y-121668171D01*
X124666039Y-121668171D02*
X124618420Y-121715790D01*
X124618420Y-121715790D02*
X124570801Y-121811028D01*
X124570801Y-121811028D02*
X124570801Y-122096742D01*
X124570801Y-122096742D02*
X124618420Y-122191980D01*
X124618420Y-122191980D02*
X124666039Y-122239600D01*
X124666039Y-122239600D02*
X124761277Y-122287219D01*
X124761277Y-122287219D02*
X124904134Y-122287219D01*
X124285086Y-121620552D02*
X123904134Y-121620552D01*
X124142229Y-121287219D02*
X124142229Y-122144361D01*
X124142229Y-122144361D02*
X124094610Y-122239600D01*
X124094610Y-122239600D02*
X123999372Y-122287219D01*
X123999372Y-122287219D02*
X123904134Y-122287219D01*
X123142229Y-122239600D02*
X123237467Y-122287219D01*
X123237467Y-122287219D02*
X123427943Y-122287219D01*
X123427943Y-122287219D02*
X123523181Y-122239600D01*
X123523181Y-122239600D02*
X123570800Y-122191980D01*
X123570800Y-122191980D02*
X123618419Y-122096742D01*
X123618419Y-122096742D02*
X123618419Y-121811028D01*
X123618419Y-121811028D02*
X123570800Y-121715790D01*
X123570800Y-121715790D02*
X123523181Y-121668171D01*
X123523181Y-121668171D02*
X123427943Y-121620552D01*
X123427943Y-121620552D02*
X123237467Y-121620552D01*
X123237467Y-121620552D02*
X123142229Y-121668171D01*
X122713657Y-122287219D02*
X122713657Y-121287219D01*
X122285086Y-122287219D02*
X122285086Y-121763409D01*
X122285086Y-121763409D02*
X122332705Y-121668171D01*
X122332705Y-121668171D02*
X122427943Y-121620552D01*
X122427943Y-121620552D02*
X122570800Y-121620552D01*
X122570800Y-121620552D02*
X122666038Y-121668171D01*
X122666038Y-121668171D02*
X122713657Y-121715790D01*
X121808895Y-122287219D02*
X121808895Y-121620552D01*
X121808895Y-121287219D02*
X121856514Y-121334838D01*
X121856514Y-121334838D02*
X121808895Y-121382457D01*
X121808895Y-121382457D02*
X121761276Y-121334838D01*
X121761276Y-121334838D02*
X121808895Y-121287219D01*
X121808895Y-121287219D02*
X121808895Y-121382457D01*
X121380324Y-122239600D02*
X121285086Y-122287219D01*
X121285086Y-122287219D02*
X121094610Y-122287219D01*
X121094610Y-122287219D02*
X120999372Y-122239600D01*
X120999372Y-122239600D02*
X120951753Y-122144361D01*
X120951753Y-122144361D02*
X120951753Y-122096742D01*
X120951753Y-122096742D02*
X120999372Y-122001504D01*
X120999372Y-122001504D02*
X121094610Y-121953885D01*
X121094610Y-121953885D02*
X121237467Y-121953885D01*
X121237467Y-121953885D02*
X121332705Y-121906266D01*
X121332705Y-121906266D02*
X121380324Y-121811028D01*
X121380324Y-121811028D02*
X121380324Y-121763409D01*
X121380324Y-121763409D02*
X121332705Y-121668171D01*
X121332705Y-121668171D02*
X121237467Y-121620552D01*
X121237467Y-121620552D02*
X121094610Y-121620552D01*
X121094610Y-121620552D02*
X120999372Y-121668171D01*
X120475562Y-122239600D02*
X120475562Y-122287219D01*
X120475562Y-122287219D02*
X120523181Y-122382457D01*
X120523181Y-122382457D02*
X120570800Y-122430076D01*
X137380326Y-123897163D02*
X137380326Y-122897163D01*
X137380326Y-122897163D02*
X136999374Y-122897163D01*
X136999374Y-122897163D02*
X136904136Y-122944782D01*
X136904136Y-122944782D02*
X136856517Y-122992401D01*
X136856517Y-122992401D02*
X136808898Y-123087639D01*
X136808898Y-123087639D02*
X136808898Y-123230496D01*
X136808898Y-123230496D02*
X136856517Y-123325734D01*
X136856517Y-123325734D02*
X136904136Y-123373353D01*
X136904136Y-123373353D02*
X136999374Y-123420972D01*
X136999374Y-123420972D02*
X137380326Y-123420972D01*
X136380326Y-123897163D02*
X136380326Y-123230496D01*
X136380326Y-122897163D02*
X136427945Y-122944782D01*
X136427945Y-122944782D02*
X136380326Y-122992401D01*
X136380326Y-122992401D02*
X136332707Y-122944782D01*
X136332707Y-122944782D02*
X136380326Y-122897163D01*
X136380326Y-122897163D02*
X136380326Y-122992401D01*
X135999374Y-123897163D02*
X135475565Y-123230496D01*
X135999374Y-123230496D02*
X135475565Y-123897163D01*
X135094612Y-123897163D02*
X135094612Y-122897163D01*
X135094612Y-122897163D02*
X134761279Y-123611448D01*
X134761279Y-123611448D02*
X134427946Y-122897163D01*
X134427946Y-122897163D02*
X134427946Y-123897163D01*
X133808898Y-123897163D02*
X133904136Y-123849544D01*
X133904136Y-123849544D02*
X133951755Y-123801924D01*
X133951755Y-123801924D02*
X133999374Y-123706686D01*
X133999374Y-123706686D02*
X133999374Y-123420972D01*
X133999374Y-123420972D02*
X133951755Y-123325734D01*
X133951755Y-123325734D02*
X133904136Y-123278115D01*
X133904136Y-123278115D02*
X133808898Y-123230496D01*
X133808898Y-123230496D02*
X133666041Y-123230496D01*
X133666041Y-123230496D02*
X133570803Y-123278115D01*
X133570803Y-123278115D02*
X133523184Y-123325734D01*
X133523184Y-123325734D02*
X133475565Y-123420972D01*
X133475565Y-123420972D02*
X133475565Y-123706686D01*
X133475565Y-123706686D02*
X133523184Y-123801924D01*
X133523184Y-123801924D02*
X133570803Y-123849544D01*
X133570803Y-123849544D02*
X133666041Y-123897163D01*
X133666041Y-123897163D02*
X133808898Y-123897163D01*
X133046993Y-123897163D02*
X133046993Y-122897163D01*
X133046993Y-123278115D02*
X132951755Y-123230496D01*
X132951755Y-123230496D02*
X132761279Y-123230496D01*
X132761279Y-123230496D02*
X132666041Y-123278115D01*
X132666041Y-123278115D02*
X132618422Y-123325734D01*
X132618422Y-123325734D02*
X132570803Y-123420972D01*
X132570803Y-123420972D02*
X132570803Y-123706686D01*
X132570803Y-123706686D02*
X132618422Y-123801924D01*
X132618422Y-123801924D02*
X132666041Y-123849544D01*
X132666041Y-123849544D02*
X132761279Y-123897163D01*
X132761279Y-123897163D02*
X132951755Y-123897163D01*
X132951755Y-123897163D02*
X133046993Y-123849544D01*
X131380326Y-123897163D02*
X131380326Y-122897163D01*
X131380326Y-123278115D02*
X131285088Y-123230496D01*
X131285088Y-123230496D02*
X131094612Y-123230496D01*
X131094612Y-123230496D02*
X130999374Y-123278115D01*
X130999374Y-123278115D02*
X130951755Y-123325734D01*
X130951755Y-123325734D02*
X130904136Y-123420972D01*
X130904136Y-123420972D02*
X130904136Y-123706686D01*
X130904136Y-123706686D02*
X130951755Y-123801924D01*
X130951755Y-123801924D02*
X130999374Y-123849544D01*
X130999374Y-123849544D02*
X131094612Y-123897163D01*
X131094612Y-123897163D02*
X131285088Y-123897163D01*
X131285088Y-123897163D02*
X131380326Y-123849544D01*
X130475564Y-123897163D02*
X130475564Y-123230496D01*
X130475564Y-123420972D02*
X130427945Y-123325734D01*
X130427945Y-123325734D02*
X130380326Y-123278115D01*
X130380326Y-123278115D02*
X130285088Y-123230496D01*
X130285088Y-123230496D02*
X130189850Y-123230496D01*
X129427945Y-123897163D02*
X129427945Y-123373353D01*
X129427945Y-123373353D02*
X129475564Y-123278115D01*
X129475564Y-123278115D02*
X129570802Y-123230496D01*
X129570802Y-123230496D02*
X129761278Y-123230496D01*
X129761278Y-123230496D02*
X129856516Y-123278115D01*
X129427945Y-123849544D02*
X129523183Y-123897163D01*
X129523183Y-123897163D02*
X129761278Y-123897163D01*
X129761278Y-123897163D02*
X129856516Y-123849544D01*
X129856516Y-123849544D02*
X129904135Y-123754305D01*
X129904135Y-123754305D02*
X129904135Y-123659067D01*
X129904135Y-123659067D02*
X129856516Y-123563829D01*
X129856516Y-123563829D02*
X129761278Y-123516210D01*
X129761278Y-123516210D02*
X129523183Y-123516210D01*
X129523183Y-123516210D02*
X129427945Y-123468591D01*
X128523183Y-123849544D02*
X128618421Y-123897163D01*
X128618421Y-123897163D02*
X128808897Y-123897163D01*
X128808897Y-123897163D02*
X128904135Y-123849544D01*
X128904135Y-123849544D02*
X128951754Y-123801924D01*
X128951754Y-123801924D02*
X128999373Y-123706686D01*
X128999373Y-123706686D02*
X128999373Y-123420972D01*
X128999373Y-123420972D02*
X128951754Y-123325734D01*
X128951754Y-123325734D02*
X128904135Y-123278115D01*
X128904135Y-123278115D02*
X128808897Y-123230496D01*
X128808897Y-123230496D02*
X128618421Y-123230496D01*
X128618421Y-123230496D02*
X128523183Y-123278115D01*
X127713659Y-123849544D02*
X127808897Y-123897163D01*
X127808897Y-123897163D02*
X127999373Y-123897163D01*
X127999373Y-123897163D02*
X128094611Y-123849544D01*
X128094611Y-123849544D02*
X128142230Y-123754305D01*
X128142230Y-123754305D02*
X128142230Y-123373353D01*
X128142230Y-123373353D02*
X128094611Y-123278115D01*
X128094611Y-123278115D02*
X127999373Y-123230496D01*
X127999373Y-123230496D02*
X127808897Y-123230496D01*
X127808897Y-123230496D02*
X127713659Y-123278115D01*
X127713659Y-123278115D02*
X127666040Y-123373353D01*
X127666040Y-123373353D02*
X127666040Y-123468591D01*
X127666040Y-123468591D02*
X128142230Y-123563829D01*
X127094611Y-123897163D02*
X127189849Y-123849544D01*
X127189849Y-123849544D02*
X127237468Y-123754305D01*
X127237468Y-123754305D02*
X127237468Y-122897163D01*
X126332706Y-123849544D02*
X126427944Y-123897163D01*
X126427944Y-123897163D02*
X126618420Y-123897163D01*
X126618420Y-123897163D02*
X126713658Y-123849544D01*
X126713658Y-123849544D02*
X126761277Y-123754305D01*
X126761277Y-123754305D02*
X126761277Y-123373353D01*
X126761277Y-123373353D02*
X126713658Y-123278115D01*
X126713658Y-123278115D02*
X126618420Y-123230496D01*
X126618420Y-123230496D02*
X126427944Y-123230496D01*
X126427944Y-123230496D02*
X126332706Y-123278115D01*
X126332706Y-123278115D02*
X126285087Y-123373353D01*
X126285087Y-123373353D02*
X126285087Y-123468591D01*
X126285087Y-123468591D02*
X126761277Y-123563829D01*
X125999372Y-123230496D02*
X125618420Y-123230496D01*
X125856515Y-122897163D02*
X125856515Y-123754305D01*
X125856515Y-123754305D02*
X125808896Y-123849544D01*
X125808896Y-123849544D02*
X125713658Y-123897163D01*
X125713658Y-123897163D02*
X125618420Y-123897163D01*
X125332705Y-123849544D02*
X125237467Y-123897163D01*
X125237467Y-123897163D02*
X125046991Y-123897163D01*
X125046991Y-123897163D02*
X124951753Y-123849544D01*
X124951753Y-123849544D02*
X124904134Y-123754305D01*
X124904134Y-123754305D02*
X124904134Y-123706686D01*
X124904134Y-123706686D02*
X124951753Y-123611448D01*
X124951753Y-123611448D02*
X125046991Y-123563829D01*
X125046991Y-123563829D02*
X125189848Y-123563829D01*
X125189848Y-123563829D02*
X125285086Y-123516210D01*
X125285086Y-123516210D02*
X125332705Y-123420972D01*
X125332705Y-123420972D02*
X125332705Y-123373353D01*
X125332705Y-123373353D02*
X125285086Y-123278115D01*
X125285086Y-123278115D02*
X125189848Y-123230496D01*
X125189848Y-123230496D02*
X125046991Y-123230496D01*
X125046991Y-123230496D02*
X124951753Y-123278115D01*
X124427943Y-123849544D02*
X124427943Y-123897163D01*
X124427943Y-123897163D02*
X124475562Y-123992401D01*
X124475562Y-123992401D02*
X124523181Y-124040020D01*
X122808896Y-123897163D02*
X122808896Y-123373353D01*
X122808896Y-123373353D02*
X122856515Y-123278115D01*
X122856515Y-123278115D02*
X122951753Y-123230496D01*
X122951753Y-123230496D02*
X123142229Y-123230496D01*
X123142229Y-123230496D02*
X123237467Y-123278115D01*
X122808896Y-123849544D02*
X122904134Y-123897163D01*
X122904134Y-123897163D02*
X123142229Y-123897163D01*
X123142229Y-123897163D02*
X123237467Y-123849544D01*
X123237467Y-123849544D02*
X123285086Y-123754305D01*
X123285086Y-123754305D02*
X123285086Y-123659067D01*
X123285086Y-123659067D02*
X123237467Y-123563829D01*
X123237467Y-123563829D02*
X123142229Y-123516210D01*
X123142229Y-123516210D02*
X122904134Y-123516210D01*
X122904134Y-123516210D02*
X122808896Y-123468591D01*
X122332705Y-123230496D02*
X122332705Y-123897163D01*
X122332705Y-123325734D02*
X122285086Y-123278115D01*
X122285086Y-123278115D02*
X122189848Y-123230496D01*
X122189848Y-123230496D02*
X122046991Y-123230496D01*
X122046991Y-123230496D02*
X121951753Y-123278115D01*
X121951753Y-123278115D02*
X121904134Y-123373353D01*
X121904134Y-123373353D02*
X121904134Y-123897163D01*
X120999372Y-123897163D02*
X120999372Y-122897163D01*
X120999372Y-123849544D02*
X121094610Y-123897163D01*
X121094610Y-123897163D02*
X121285086Y-123897163D01*
X121285086Y-123897163D02*
X121380324Y-123849544D01*
X121380324Y-123849544D02*
X121427943Y-123801924D01*
X121427943Y-123801924D02*
X121475562Y-123706686D01*
X121475562Y-123706686D02*
X121475562Y-123420972D01*
X121475562Y-123420972D02*
X121427943Y-123325734D01*
X121427943Y-123325734D02*
X121380324Y-123278115D01*
X121380324Y-123278115D02*
X121285086Y-123230496D01*
X121285086Y-123230496D02*
X121094610Y-123230496D01*
X121094610Y-123230496D02*
X120999372Y-123278115D01*
X137380326Y-125507107D02*
X137380326Y-124840440D01*
X137380326Y-124935678D02*
X137332707Y-124888059D01*
X137332707Y-124888059D02*
X137237469Y-124840440D01*
X137237469Y-124840440D02*
X137094612Y-124840440D01*
X137094612Y-124840440D02*
X136999374Y-124888059D01*
X136999374Y-124888059D02*
X136951755Y-124983297D01*
X136951755Y-124983297D02*
X136951755Y-125507107D01*
X136951755Y-124983297D02*
X136904136Y-124888059D01*
X136904136Y-124888059D02*
X136808898Y-124840440D01*
X136808898Y-124840440D02*
X136666041Y-124840440D01*
X136666041Y-124840440D02*
X136570802Y-124888059D01*
X136570802Y-124888059D02*
X136523183Y-124983297D01*
X136523183Y-124983297D02*
X136523183Y-125507107D01*
X135618422Y-125507107D02*
X135618422Y-124983297D01*
X135618422Y-124983297D02*
X135666041Y-124888059D01*
X135666041Y-124888059D02*
X135761279Y-124840440D01*
X135761279Y-124840440D02*
X135951755Y-124840440D01*
X135951755Y-124840440D02*
X136046993Y-124888059D01*
X135618422Y-125459488D02*
X135713660Y-125507107D01*
X135713660Y-125507107D02*
X135951755Y-125507107D01*
X135951755Y-125507107D02*
X136046993Y-125459488D01*
X136046993Y-125459488D02*
X136094612Y-125364249D01*
X136094612Y-125364249D02*
X136094612Y-125269011D01*
X136094612Y-125269011D02*
X136046993Y-125173773D01*
X136046993Y-125173773D02*
X135951755Y-125126154D01*
X135951755Y-125126154D02*
X135713660Y-125126154D01*
X135713660Y-125126154D02*
X135618422Y-125078535D01*
X135237469Y-124840440D02*
X134999374Y-125507107D01*
X134761279Y-124840440D02*
X134999374Y-125507107D01*
X134999374Y-125507107D02*
X135094612Y-125745202D01*
X135094612Y-125745202D02*
X135142231Y-125792821D01*
X135142231Y-125792821D02*
X135237469Y-125840440D01*
X134380326Y-125507107D02*
X134380326Y-124507107D01*
X134380326Y-124888059D02*
X134285088Y-124840440D01*
X134285088Y-124840440D02*
X134094612Y-124840440D01*
X134094612Y-124840440D02*
X133999374Y-124888059D01*
X133999374Y-124888059D02*
X133951755Y-124935678D01*
X133951755Y-124935678D02*
X133904136Y-125030916D01*
X133904136Y-125030916D02*
X133904136Y-125316630D01*
X133904136Y-125316630D02*
X133951755Y-125411868D01*
X133951755Y-125411868D02*
X133999374Y-125459488D01*
X133999374Y-125459488D02*
X134094612Y-125507107D01*
X134094612Y-125507107D02*
X134285088Y-125507107D01*
X134285088Y-125507107D02*
X134380326Y-125459488D01*
X133094612Y-125459488D02*
X133189850Y-125507107D01*
X133189850Y-125507107D02*
X133380326Y-125507107D01*
X133380326Y-125507107D02*
X133475564Y-125459488D01*
X133475564Y-125459488D02*
X133523183Y-125364249D01*
X133523183Y-125364249D02*
X133523183Y-124983297D01*
X133523183Y-124983297D02*
X133475564Y-124888059D01*
X133475564Y-124888059D02*
X133380326Y-124840440D01*
X133380326Y-124840440D02*
X133189850Y-124840440D01*
X133189850Y-124840440D02*
X133094612Y-124888059D01*
X133094612Y-124888059D02*
X133046993Y-124983297D01*
X133046993Y-124983297D02*
X133046993Y-125078535D01*
X133046993Y-125078535D02*
X133523183Y-125173773D01*
X131856516Y-125507107D02*
X131856516Y-124840440D01*
X131856516Y-124935678D02*
X131808897Y-124888059D01*
X131808897Y-124888059D02*
X131713659Y-124840440D01*
X131713659Y-124840440D02*
X131570802Y-124840440D01*
X131570802Y-124840440D02*
X131475564Y-124888059D01*
X131475564Y-124888059D02*
X131427945Y-124983297D01*
X131427945Y-124983297D02*
X131427945Y-125507107D01*
X131427945Y-124983297D02*
X131380326Y-124888059D01*
X131380326Y-124888059D02*
X131285088Y-124840440D01*
X131285088Y-124840440D02*
X131142231Y-124840440D01*
X131142231Y-124840440D02*
X131046992Y-124888059D01*
X131046992Y-124888059D02*
X130999373Y-124983297D01*
X130999373Y-124983297D02*
X130999373Y-125507107D01*
X130380326Y-125507107D02*
X130475564Y-125459488D01*
X130475564Y-125459488D02*
X130523183Y-125411868D01*
X130523183Y-125411868D02*
X130570802Y-125316630D01*
X130570802Y-125316630D02*
X130570802Y-125030916D01*
X130570802Y-125030916D02*
X130523183Y-124935678D01*
X130523183Y-124935678D02*
X130475564Y-124888059D01*
X130475564Y-124888059D02*
X130380326Y-124840440D01*
X130380326Y-124840440D02*
X130237469Y-124840440D01*
X130237469Y-124840440D02*
X130142231Y-124888059D01*
X130142231Y-124888059D02*
X130094612Y-124935678D01*
X130094612Y-124935678D02*
X130046993Y-125030916D01*
X130046993Y-125030916D02*
X130046993Y-125316630D01*
X130046993Y-125316630D02*
X130094612Y-125411868D01*
X130094612Y-125411868D02*
X130142231Y-125459488D01*
X130142231Y-125459488D02*
X130237469Y-125507107D01*
X130237469Y-125507107D02*
X130380326Y-125507107D01*
X129618421Y-125507107D02*
X129618421Y-124840440D01*
X129618421Y-125030916D02*
X129570802Y-124935678D01*
X129570802Y-124935678D02*
X129523183Y-124888059D01*
X129523183Y-124888059D02*
X129427945Y-124840440D01*
X129427945Y-124840440D02*
X129332707Y-124840440D01*
X128618421Y-125459488D02*
X128713659Y-125507107D01*
X128713659Y-125507107D02*
X128904135Y-125507107D01*
X128904135Y-125507107D02*
X128999373Y-125459488D01*
X128999373Y-125459488D02*
X129046992Y-125364249D01*
X129046992Y-125364249D02*
X129046992Y-124983297D01*
X129046992Y-124983297D02*
X128999373Y-124888059D01*
X128999373Y-124888059D02*
X128904135Y-124840440D01*
X128904135Y-124840440D02*
X128713659Y-124840440D01*
X128713659Y-124840440D02*
X128618421Y-124888059D01*
X128618421Y-124888059D02*
X128570802Y-124983297D01*
X128570802Y-124983297D02*
X128570802Y-125078535D01*
X128570802Y-125078535D02*
X129046992Y-125173773D01*
X128142230Y-125411868D02*
X128094611Y-125459488D01*
X128094611Y-125459488D02*
X128142230Y-125507107D01*
X128142230Y-125507107D02*
X128189849Y-125459488D01*
X128189849Y-125459488D02*
X128142230Y-125411868D01*
X128142230Y-125411868D02*
X128142230Y-125507107D01*
X128142230Y-125126154D02*
X128189849Y-124554726D01*
X128189849Y-124554726D02*
X128142230Y-124507107D01*
X128142230Y-124507107D02*
X128094611Y-124554726D01*
X128094611Y-124554726D02*
X128142230Y-125126154D01*
X128142230Y-125126154D02*
X128142230Y-124507107D01*
X128630326Y-133287219D02*
X128630326Y-132287219D01*
X128154136Y-132620552D02*
X128154136Y-133287219D01*
X128154136Y-132715790D02*
X128106517Y-132668171D01*
X128106517Y-132668171D02*
X128011279Y-132620552D01*
X128011279Y-132620552D02*
X127868422Y-132620552D01*
X127868422Y-132620552D02*
X127773184Y-132668171D01*
X127773184Y-132668171D02*
X127725565Y-132763409D01*
X127725565Y-132763409D02*
X127725565Y-133287219D01*
X127296993Y-133239600D02*
X127201755Y-133287219D01*
X127201755Y-133287219D02*
X127011279Y-133287219D01*
X127011279Y-133287219D02*
X126916041Y-133239600D01*
X126916041Y-133239600D02*
X126868422Y-133144361D01*
X126868422Y-133144361D02*
X126868422Y-133096742D01*
X126868422Y-133096742D02*
X126916041Y-133001504D01*
X126916041Y-133001504D02*
X127011279Y-132953885D01*
X127011279Y-132953885D02*
X127154136Y-132953885D01*
X127154136Y-132953885D02*
X127249374Y-132906266D01*
X127249374Y-132906266D02*
X127296993Y-132811028D01*
X127296993Y-132811028D02*
X127296993Y-132763409D01*
X127296993Y-132763409D02*
X127249374Y-132668171D01*
X127249374Y-132668171D02*
X127154136Y-132620552D01*
X127154136Y-132620552D02*
X127011279Y-132620552D01*
X127011279Y-132620552D02*
X126916041Y-132668171D01*
X126582707Y-132620552D02*
X126201755Y-132620552D01*
X126439850Y-132287219D02*
X126439850Y-133144361D01*
X126439850Y-133144361D02*
X126392231Y-133239600D01*
X126392231Y-133239600D02*
X126296993Y-133287219D01*
X126296993Y-133287219D02*
X126201755Y-133287219D01*
X125868421Y-133287219D02*
X125868421Y-132620552D01*
X125868421Y-132811028D02*
X125820802Y-132715790D01*
X125820802Y-132715790D02*
X125773183Y-132668171D01*
X125773183Y-132668171D02*
X125677945Y-132620552D01*
X125677945Y-132620552D02*
X125582707Y-132620552D01*
X124820802Y-132620552D02*
X124820802Y-133287219D01*
X125249373Y-132620552D02*
X125249373Y-133144361D01*
X125249373Y-133144361D02*
X125201754Y-133239600D01*
X125201754Y-133239600D02*
X125106516Y-133287219D01*
X125106516Y-133287219D02*
X124963659Y-133287219D01*
X124963659Y-133287219D02*
X124868421Y-133239600D01*
X124868421Y-133239600D02*
X124820802Y-133191980D01*
X123916040Y-133239600D02*
X124011278Y-133287219D01*
X124011278Y-133287219D02*
X124201754Y-133287219D01*
X124201754Y-133287219D02*
X124296992Y-133239600D01*
X124296992Y-133239600D02*
X124344611Y-133191980D01*
X124344611Y-133191980D02*
X124392230Y-133096742D01*
X124392230Y-133096742D02*
X124392230Y-132811028D01*
X124392230Y-132811028D02*
X124344611Y-132715790D01*
X124344611Y-132715790D02*
X124296992Y-132668171D01*
X124296992Y-132668171D02*
X124201754Y-132620552D01*
X124201754Y-132620552D02*
X124011278Y-132620552D01*
X124011278Y-132620552D02*
X123916040Y-132668171D01*
X123630325Y-132620552D02*
X123249373Y-132620552D01*
X123487468Y-132287219D02*
X123487468Y-133144361D01*
X123487468Y-133144361D02*
X123439849Y-133239600D01*
X123439849Y-133239600D02*
X123344611Y-133287219D01*
X123344611Y-133287219D02*
X123249373Y-133287219D01*
X122916039Y-133287219D02*
X122916039Y-132620552D01*
X122916039Y-132287219D02*
X122963658Y-132334838D01*
X122963658Y-132334838D02*
X122916039Y-132382457D01*
X122916039Y-132382457D02*
X122868420Y-132334838D01*
X122868420Y-132334838D02*
X122916039Y-132287219D01*
X122916039Y-132287219D02*
X122916039Y-132382457D01*
X122296992Y-133287219D02*
X122392230Y-133239600D01*
X122392230Y-133239600D02*
X122439849Y-133191980D01*
X122439849Y-133191980D02*
X122487468Y-133096742D01*
X122487468Y-133096742D02*
X122487468Y-132811028D01*
X122487468Y-132811028D02*
X122439849Y-132715790D01*
X122439849Y-132715790D02*
X122392230Y-132668171D01*
X122392230Y-132668171D02*
X122296992Y-132620552D01*
X122296992Y-132620552D02*
X122154135Y-132620552D01*
X122154135Y-132620552D02*
X122058897Y-132668171D01*
X122058897Y-132668171D02*
X122011278Y-132715790D01*
X122011278Y-132715790D02*
X121963659Y-132811028D01*
X121963659Y-132811028D02*
X121963659Y-133096742D01*
X121963659Y-133096742D02*
X122011278Y-133191980D01*
X122011278Y-133191980D02*
X122058897Y-133239600D01*
X122058897Y-133239600D02*
X122154135Y-133287219D01*
X122154135Y-133287219D02*
X122296992Y-133287219D01*
X121535087Y-132620552D02*
X121535087Y-133287219D01*
X121535087Y-132715790D02*
X121487468Y-132668171D01*
X121487468Y-132668171D02*
X121392230Y-132620552D01*
X121392230Y-132620552D02*
X121249373Y-132620552D01*
X121249373Y-132620552D02*
X121154135Y-132668171D01*
X121154135Y-132668171D02*
X121106516Y-132763409D01*
X121106516Y-132763409D02*
X121106516Y-133287219D01*
X120677944Y-133239600D02*
X120582706Y-133287219D01*
X120582706Y-133287219D02*
X120392230Y-133287219D01*
X120392230Y-133287219D02*
X120296992Y-133239600D01*
X120296992Y-133239600D02*
X120249373Y-133144361D01*
X120249373Y-133144361D02*
X120249373Y-133096742D01*
X120249373Y-133096742D02*
X120296992Y-133001504D01*
X120296992Y-133001504D02*
X120392230Y-132953885D01*
X120392230Y-132953885D02*
X120535087Y-132953885D01*
X120535087Y-132953885D02*
X120630325Y-132906266D01*
X120630325Y-132906266D02*
X120677944Y-132811028D01*
X120677944Y-132811028D02*
X120677944Y-132763409D01*
X120677944Y-132763409D02*
X120630325Y-132668171D01*
X120630325Y-132668171D02*
X120535087Y-132620552D01*
X120535087Y-132620552D02*
X120392230Y-132620552D01*
X120392230Y-132620552D02*
X120296992Y-132668171D01*
X119820801Y-133191980D02*
X119773182Y-133239600D01*
X119773182Y-133239600D02*
X119820801Y-133287219D01*
X119820801Y-133287219D02*
X119868420Y-133239600D01*
X119868420Y-133239600D02*
X119820801Y-133191980D01*
X119820801Y-133191980D02*
X119820801Y-133287219D01*
X119820801Y-132668171D02*
X119773182Y-132715790D01*
X119773182Y-132715790D02*
X119820801Y-132763409D01*
X119820801Y-132763409D02*
X119868420Y-132715790D01*
X119868420Y-132715790D02*
X119820801Y-132668171D01*
X119820801Y-132668171D02*
X119820801Y-132763409D01*
X123773183Y-105367219D02*
X123201755Y-105367219D01*
X123487469Y-106367219D02*
X123487469Y-105367219D01*
X122439850Y-106367219D02*
X122439850Y-105843409D01*
X122439850Y-105843409D02*
X122487469Y-105748171D01*
X122487469Y-105748171D02*
X122582707Y-105700552D01*
X122582707Y-105700552D02*
X122773183Y-105700552D01*
X122773183Y-105700552D02*
X122868421Y-105748171D01*
X122439850Y-106319600D02*
X122535088Y-106367219D01*
X122535088Y-106367219D02*
X122773183Y-106367219D01*
X122773183Y-106367219D02*
X122868421Y-106319600D01*
X122868421Y-106319600D02*
X122916040Y-106224361D01*
X122916040Y-106224361D02*
X122916040Y-106129123D01*
X122916040Y-106129123D02*
X122868421Y-106033885D01*
X122868421Y-106033885D02*
X122773183Y-105986266D01*
X122773183Y-105986266D02*
X122535088Y-105986266D01*
X122535088Y-105986266D02*
X122439850Y-105938647D01*
X121963659Y-106367219D02*
X121963659Y-105700552D01*
X121963659Y-105795790D02*
X121916040Y-105748171D01*
X121916040Y-105748171D02*
X121820802Y-105700552D01*
X121820802Y-105700552D02*
X121677945Y-105700552D01*
X121677945Y-105700552D02*
X121582707Y-105748171D01*
X121582707Y-105748171D02*
X121535088Y-105843409D01*
X121535088Y-105843409D02*
X121535088Y-106367219D01*
X121535088Y-105843409D02*
X121487469Y-105748171D01*
X121487469Y-105748171D02*
X121392231Y-105700552D01*
X121392231Y-105700552D02*
X121249374Y-105700552D01*
X121249374Y-105700552D02*
X121154135Y-105748171D01*
X121154135Y-105748171D02*
X121106516Y-105843409D01*
X121106516Y-105843409D02*
X121106516Y-106367219D01*
X120201755Y-106367219D02*
X120201755Y-105843409D01*
X120201755Y-105843409D02*
X120249374Y-105748171D01*
X120249374Y-105748171D02*
X120344612Y-105700552D01*
X120344612Y-105700552D02*
X120535088Y-105700552D01*
X120535088Y-105700552D02*
X120630326Y-105748171D01*
X120201755Y-106319600D02*
X120296993Y-106367219D01*
X120296993Y-106367219D02*
X120535088Y-106367219D01*
X120535088Y-106367219D02*
X120630326Y-106319600D01*
X120630326Y-106319600D02*
X120677945Y-106224361D01*
X120677945Y-106224361D02*
X120677945Y-106129123D01*
X120677945Y-106129123D02*
X120630326Y-106033885D01*
X120630326Y-106033885D02*
X120535088Y-105986266D01*
X120535088Y-105986266D02*
X120296993Y-105986266D01*
X120296993Y-105986266D02*
X120201755Y-105938647D01*
X119392231Y-105843409D02*
X119249374Y-105891028D01*
X119249374Y-105891028D02*
X119201755Y-105938647D01*
X119201755Y-105938647D02*
X119154136Y-106033885D01*
X119154136Y-106033885D02*
X119154136Y-106176742D01*
X119154136Y-106176742D02*
X119201755Y-106271980D01*
X119201755Y-106271980D02*
X119249374Y-106319600D01*
X119249374Y-106319600D02*
X119344612Y-106367219D01*
X119344612Y-106367219D02*
X119725564Y-106367219D01*
X119725564Y-106367219D02*
X119725564Y-105367219D01*
X119725564Y-105367219D02*
X119392231Y-105367219D01*
X119392231Y-105367219D02*
X119296993Y-105414838D01*
X119296993Y-105414838D02*
X119249374Y-105462457D01*
X119249374Y-105462457D02*
X119201755Y-105557695D01*
X119201755Y-105557695D02*
X119201755Y-105652933D01*
X119201755Y-105652933D02*
X119249374Y-105748171D01*
X119249374Y-105748171D02*
X119296993Y-105795790D01*
X119296993Y-105795790D02*
X119392231Y-105843409D01*
X119392231Y-105843409D02*
X119725564Y-105843409D01*
X118296993Y-106367219D02*
X118296993Y-105843409D01*
X118296993Y-105843409D02*
X118344612Y-105748171D01*
X118344612Y-105748171D02*
X118439850Y-105700552D01*
X118439850Y-105700552D02*
X118630326Y-105700552D01*
X118630326Y-105700552D02*
X118725564Y-105748171D01*
X118296993Y-106319600D02*
X118392231Y-106367219D01*
X118392231Y-106367219D02*
X118630326Y-106367219D01*
X118630326Y-106367219D02*
X118725564Y-106319600D01*
X118725564Y-106319600D02*
X118773183Y-106224361D01*
X118773183Y-106224361D02*
X118773183Y-106129123D01*
X118773183Y-106129123D02*
X118725564Y-106033885D01*
X118725564Y-106033885D02*
X118630326Y-105986266D01*
X118630326Y-105986266D02*
X118392231Y-105986266D01*
X118392231Y-105986266D02*
X118296993Y-105938647D01*
X117392231Y-106367219D02*
X117392231Y-105367219D01*
X117392231Y-106319600D02*
X117487469Y-106367219D01*
X117487469Y-106367219D02*
X117677945Y-106367219D01*
X117677945Y-106367219D02*
X117773183Y-106319600D01*
X117773183Y-106319600D02*
X117820802Y-106271980D01*
X117820802Y-106271980D02*
X117868421Y-106176742D01*
X117868421Y-106176742D02*
X117868421Y-105891028D01*
X117868421Y-105891028D02*
X117820802Y-105795790D01*
X117820802Y-105795790D02*
X117773183Y-105748171D01*
X117773183Y-105748171D02*
X117677945Y-105700552D01*
X117677945Y-105700552D02*
X117487469Y-105700552D01*
X117487469Y-105700552D02*
X117392231Y-105748171D01*
X116487469Y-105700552D02*
X116487469Y-106510076D01*
X116487469Y-106510076D02*
X116535088Y-106605314D01*
X116535088Y-106605314D02*
X116582707Y-106652933D01*
X116582707Y-106652933D02*
X116677945Y-106700552D01*
X116677945Y-106700552D02*
X116820802Y-106700552D01*
X116820802Y-106700552D02*
X116916040Y-106652933D01*
X116487469Y-106319600D02*
X116582707Y-106367219D01*
X116582707Y-106367219D02*
X116773183Y-106367219D01*
X116773183Y-106367219D02*
X116868421Y-106319600D01*
X116868421Y-106319600D02*
X116916040Y-106271980D01*
X116916040Y-106271980D02*
X116963659Y-106176742D01*
X116963659Y-106176742D02*
X116963659Y-105891028D01*
X116963659Y-105891028D02*
X116916040Y-105795790D01*
X116916040Y-105795790D02*
X116868421Y-105748171D01*
X116868421Y-105748171D02*
X116773183Y-105700552D01*
X116773183Y-105700552D02*
X116582707Y-105700552D01*
X116582707Y-105700552D02*
X116487469Y-105748171D01*
X115630326Y-106319600D02*
X115725564Y-106367219D01*
X115725564Y-106367219D02*
X115916040Y-106367219D01*
X115916040Y-106367219D02*
X116011278Y-106319600D01*
X116011278Y-106319600D02*
X116058897Y-106224361D01*
X116058897Y-106224361D02*
X116058897Y-105843409D01*
X116058897Y-105843409D02*
X116011278Y-105748171D01*
X116011278Y-105748171D02*
X115916040Y-105700552D01*
X115916040Y-105700552D02*
X115725564Y-105700552D01*
X115725564Y-105700552D02*
X115630326Y-105748171D01*
X115630326Y-105748171D02*
X115582707Y-105843409D01*
X115582707Y-105843409D02*
X115582707Y-105938647D01*
X115582707Y-105938647D02*
X116058897Y-106033885D01*
X114439849Y-106319600D02*
X114296992Y-106367219D01*
X114296992Y-106367219D02*
X114058897Y-106367219D01*
X114058897Y-106367219D02*
X113963659Y-106319600D01*
X113963659Y-106319600D02*
X113916040Y-106271980D01*
X113916040Y-106271980D02*
X113868421Y-106176742D01*
X113868421Y-106176742D02*
X113868421Y-106081504D01*
X113868421Y-106081504D02*
X113916040Y-105986266D01*
X113916040Y-105986266D02*
X113963659Y-105938647D01*
X113963659Y-105938647D02*
X114058897Y-105891028D01*
X114058897Y-105891028D02*
X114249373Y-105843409D01*
X114249373Y-105843409D02*
X114344611Y-105795790D01*
X114344611Y-105795790D02*
X114392230Y-105748171D01*
X114392230Y-105748171D02*
X114439849Y-105652933D01*
X114439849Y-105652933D02*
X114439849Y-105557695D01*
X114439849Y-105557695D02*
X114392230Y-105462457D01*
X114392230Y-105462457D02*
X114344611Y-105414838D01*
X114344611Y-105414838D02*
X114249373Y-105367219D01*
X114249373Y-105367219D02*
X114011278Y-105367219D01*
X114011278Y-105367219D02*
X113868421Y-105414838D01*
X113487468Y-106081504D02*
X113011278Y-106081504D01*
X113582706Y-106367219D02*
X113249373Y-105367219D01*
X113249373Y-105367219D02*
X112916040Y-106367219D01*
X112392230Y-105367219D02*
X112201754Y-105367219D01*
X112201754Y-105367219D02*
X112106516Y-105414838D01*
X112106516Y-105414838D02*
X112011278Y-105510076D01*
X112011278Y-105510076D02*
X111963659Y-105700552D01*
X111963659Y-105700552D02*
X111963659Y-106033885D01*
X111963659Y-106033885D02*
X112011278Y-106224361D01*
X112011278Y-106224361D02*
X112106516Y-106319600D01*
X112106516Y-106319600D02*
X112201754Y-106367219D01*
X112201754Y-106367219D02*
X112392230Y-106367219D01*
X112392230Y-106367219D02*
X112487468Y-106319600D01*
X112487468Y-106319600D02*
X112582706Y-106224361D01*
X112582706Y-106224361D02*
X112630325Y-106033885D01*
X112630325Y-106033885D02*
X112630325Y-105700552D01*
X112630325Y-105700552D02*
X112582706Y-105510076D01*
X112582706Y-105510076D02*
X112487468Y-105414838D01*
X112487468Y-105414838D02*
X112392230Y-105367219D01*
X110868420Y-105700552D02*
X110630325Y-106367219D01*
X110630325Y-106367219D02*
X110392230Y-105700552D01*
X109820801Y-105367219D02*
X109725563Y-105367219D01*
X109725563Y-105367219D02*
X109630325Y-105414838D01*
X109630325Y-105414838D02*
X109582706Y-105462457D01*
X109582706Y-105462457D02*
X109535087Y-105557695D01*
X109535087Y-105557695D02*
X109487468Y-105748171D01*
X109487468Y-105748171D02*
X109487468Y-105986266D01*
X109487468Y-105986266D02*
X109535087Y-106176742D01*
X109535087Y-106176742D02*
X109582706Y-106271980D01*
X109582706Y-106271980D02*
X109630325Y-106319600D01*
X109630325Y-106319600D02*
X109725563Y-106367219D01*
X109725563Y-106367219D02*
X109820801Y-106367219D01*
X109820801Y-106367219D02*
X109916039Y-106319600D01*
X109916039Y-106319600D02*
X109963658Y-106271980D01*
X109963658Y-106271980D02*
X110011277Y-106176742D01*
X110011277Y-106176742D02*
X110058896Y-105986266D01*
X110058896Y-105986266D02*
X110058896Y-105748171D01*
X110058896Y-105748171D02*
X110011277Y-105557695D01*
X110011277Y-105557695D02*
X109963658Y-105462457D01*
X109963658Y-105462457D02*
X109916039Y-105414838D01*
X109916039Y-105414838D02*
X109820801Y-105367219D01*
X109058896Y-106271980D02*
X109011277Y-106319600D01*
X109011277Y-106319600D02*
X109058896Y-106367219D01*
X109058896Y-106367219D02*
X109106515Y-106319600D01*
X109106515Y-106319600D02*
X109058896Y-106271980D01*
X109058896Y-106271980D02*
X109058896Y-106367219D01*
X108677944Y-105367219D02*
X108058897Y-105367219D01*
X108058897Y-105367219D02*
X108392230Y-105748171D01*
X108392230Y-105748171D02*
X108249373Y-105748171D01*
X108249373Y-105748171D02*
X108154135Y-105795790D01*
X108154135Y-105795790D02*
X108106516Y-105843409D01*
X108106516Y-105843409D02*
X108058897Y-105938647D01*
X108058897Y-105938647D02*
X108058897Y-106176742D01*
X108058897Y-106176742D02*
X108106516Y-106271980D01*
X108106516Y-106271980D02*
X108154135Y-106319600D01*
X108154135Y-106319600D02*
X108249373Y-106367219D01*
X108249373Y-106367219D02*
X108535087Y-106367219D01*
X108535087Y-106367219D02*
X108630325Y-106319600D01*
X108630325Y-106319600D02*
X108677944Y-106271980D01*
D11*
X124809523Y-156954819D02*
X124142857Y-157954819D01*
X124142857Y-156954819D02*
X124809523Y-157954819D01*
X123238095Y-157954819D02*
X123809523Y-157954819D01*
X123523809Y-157954819D02*
X123523809Y-156954819D01*
X123523809Y-156954819D02*
X123619047Y-157097676D01*
X123619047Y-157097676D02*
X123714285Y-157192914D01*
X123714285Y-157192914D02*
X123809523Y-157240533D01*
X113359999Y-154045164D02*
X113109999Y-154795164D01*
X113109999Y-154795164D02*
X112859999Y-154045164D01*
X112181428Y-154723735D02*
X112217142Y-154759450D01*
X112217142Y-154759450D02*
X112324285Y-154795164D01*
X112324285Y-154795164D02*
X112395713Y-154795164D01*
X112395713Y-154795164D02*
X112502856Y-154759450D01*
X112502856Y-154759450D02*
X112574285Y-154688021D01*
X112574285Y-154688021D02*
X112609999Y-154616592D01*
X112609999Y-154616592D02*
X112645713Y-154473735D01*
X112645713Y-154473735D02*
X112645713Y-154366592D01*
X112645713Y-154366592D02*
X112609999Y-154223735D01*
X112609999Y-154223735D02*
X112574285Y-154152307D01*
X112574285Y-154152307D02*
X112502856Y-154080878D01*
X112502856Y-154080878D02*
X112395713Y-154045164D01*
X112395713Y-154045164D02*
X112324285Y-154045164D01*
X112324285Y-154045164D02*
X112217142Y-154080878D01*
X112217142Y-154080878D02*
X112181428Y-154116592D01*
X111431428Y-154723735D02*
X111467142Y-154759450D01*
X111467142Y-154759450D02*
X111574285Y-154795164D01*
X111574285Y-154795164D02*
X111645713Y-154795164D01*
X111645713Y-154795164D02*
X111752856Y-154759450D01*
X111752856Y-154759450D02*
X111824285Y-154688021D01*
X111824285Y-154688021D02*
X111859999Y-154616592D01*
X111859999Y-154616592D02*
X111895713Y-154473735D01*
X111895713Y-154473735D02*
X111895713Y-154366592D01*
X111895713Y-154366592D02*
X111859999Y-154223735D01*
X111859999Y-154223735D02*
X111824285Y-154152307D01*
X111824285Y-154152307D02*
X111752856Y-154080878D01*
X111752856Y-154080878D02*
X111645713Y-154045164D01*
X111645713Y-154045164D02*
X111574285Y-154045164D01*
X111574285Y-154045164D02*
X111467142Y-154080878D01*
X111467142Y-154080878D02*
X111431428Y-154116592D01*
X110571428Y-158124878D02*
X110642857Y-158089164D01*
X110642857Y-158089164D02*
X110749999Y-158089164D01*
X110749999Y-158089164D02*
X110857142Y-158124878D01*
X110857142Y-158124878D02*
X110928571Y-158196307D01*
X110928571Y-158196307D02*
X110964285Y-158267735D01*
X110964285Y-158267735D02*
X110999999Y-158410592D01*
X110999999Y-158410592D02*
X110999999Y-158517735D01*
X110999999Y-158517735D02*
X110964285Y-158660592D01*
X110964285Y-158660592D02*
X110928571Y-158732021D01*
X110928571Y-158732021D02*
X110857142Y-158803450D01*
X110857142Y-158803450D02*
X110749999Y-158839164D01*
X110749999Y-158839164D02*
X110678571Y-158839164D01*
X110678571Y-158839164D02*
X110571428Y-158803450D01*
X110571428Y-158803450D02*
X110535714Y-158767735D01*
X110535714Y-158767735D02*
X110535714Y-158517735D01*
X110535714Y-158517735D02*
X110678571Y-158517735D01*
X110214285Y-158839164D02*
X110214285Y-158089164D01*
X110214285Y-158089164D02*
X109785714Y-158839164D01*
X109785714Y-158839164D02*
X109785714Y-158089164D01*
X109428571Y-158839164D02*
X109428571Y-158089164D01*
X109428571Y-158089164D02*
X109250000Y-158089164D01*
X109250000Y-158089164D02*
X109142857Y-158124878D01*
X109142857Y-158124878D02*
X109071428Y-158196307D01*
X109071428Y-158196307D02*
X109035714Y-158267735D01*
X109035714Y-158267735D02*
X109000000Y-158410592D01*
X109000000Y-158410592D02*
X109000000Y-158517735D01*
X109000000Y-158517735D02*
X109035714Y-158660592D01*
X109035714Y-158660592D02*
X109071428Y-158732021D01*
X109071428Y-158732021D02*
X109142857Y-158803450D01*
X109142857Y-158803450D02*
X109250000Y-158839164D01*
X109250000Y-158839164D02*
X109428571Y-158839164D01*
D12*
%TO.C,G\u002A\u002A\u002A*%
G36*
X117399830Y-130775043D02*
G01*
X118434804Y-130775043D01*
X118434804Y-131465026D01*
X118434804Y-132155009D01*
X118779796Y-132155009D01*
X119124787Y-132155009D01*
X119124787Y-133887154D01*
X119124787Y-135619299D01*
X118772609Y-135619299D01*
X118420430Y-135619299D01*
X118420005Y-135277901D01*
X118419926Y-135228902D01*
X118419687Y-135126431D01*
X118419332Y-135003096D01*
X118418877Y-134863842D01*
X118418341Y-134713612D01*
X118417740Y-134557352D01*
X118417091Y-134400006D01*
X118416412Y-134246520D01*
X118413242Y-133556537D01*
X118068251Y-133553534D01*
X118065119Y-133553507D01*
X117939028Y-133552536D01*
X117796315Y-133551635D01*
X117648320Y-133550862D01*
X117506389Y-133550278D01*
X117381862Y-133549940D01*
X117040464Y-133549349D01*
X117040464Y-133197171D01*
X117040464Y-132844992D01*
X117730712Y-132844992D01*
X118420960Y-132844992D01*
X118417101Y-132510781D01*
X118413242Y-132176571D01*
X118072104Y-132172718D01*
X117730966Y-132168864D01*
X117727113Y-131827726D01*
X117723259Y-131486588D01*
X117389049Y-131482729D01*
X117054838Y-131478871D01*
X117054838Y-131824127D01*
X117054838Y-132169383D01*
X116702920Y-132169383D01*
X116351001Y-132169383D01*
X116347147Y-131827986D01*
X116343293Y-131486588D01*
X116002155Y-131482735D01*
X115661017Y-131478881D01*
X115657164Y-131137743D01*
X115653310Y-130796605D01*
X115319100Y-130792746D01*
X114984889Y-130788888D01*
X114984889Y-131134144D01*
X114984889Y-131465026D01*
X114984889Y-131479400D01*
X114639898Y-131479400D01*
X114294906Y-131479400D01*
X114294906Y-131817205D01*
X114294906Y-132155009D01*
X114639898Y-132155009D01*
X114984889Y-132155009D01*
X114984889Y-132500000D01*
X114984889Y-132844992D01*
X115674872Y-132844992D01*
X116364855Y-132844992D01*
X116364855Y-133197171D01*
X116364855Y-133534975D01*
X116364855Y-133549349D01*
X116016270Y-133550059D01*
X116009298Y-133550072D01*
X115882267Y-133550215D01*
X115739273Y-133550206D01*
X115591492Y-133550058D01*
X115450104Y-133549780D01*
X115326287Y-133549384D01*
X114984889Y-133548001D01*
X114984889Y-133893667D01*
X114984889Y-134239333D01*
X114636304Y-134240042D01*
X114629332Y-134240055D01*
X114502301Y-134240198D01*
X114359307Y-134240189D01*
X114211526Y-134240041D01*
X114070138Y-134239763D01*
X113946321Y-134239367D01*
X113604923Y-134237984D01*
X113604923Y-135273633D01*
X113604923Y-136309282D01*
X113256338Y-136309991D01*
X113249366Y-136310004D01*
X113122335Y-136310147D01*
X112979341Y-136310138D01*
X112831560Y-136309990D01*
X112690172Y-136309712D01*
X112566355Y-136309317D01*
X112224957Y-136307933D01*
X112224957Y-136646412D01*
X112224957Y-136984890D01*
X112914940Y-136984890D01*
X113604923Y-136984890D01*
X113604923Y-138364856D01*
X113604923Y-138372043D01*
X113604923Y-139759197D01*
X113256338Y-139759906D01*
X113249366Y-139759920D01*
X113122335Y-139760062D01*
X112979341Y-139760053D01*
X112831560Y-139759905D01*
X112690172Y-139759627D01*
X112566355Y-139759232D01*
X112224957Y-139757848D01*
X112224957Y-140448506D01*
X112224957Y-141139163D01*
X111872778Y-141139163D01*
X111520600Y-141139163D01*
X111520175Y-140797765D01*
X111520096Y-140748766D01*
X111519857Y-140646296D01*
X111519502Y-140522961D01*
X111519047Y-140383706D01*
X111518511Y-140233476D01*
X111517909Y-140077216D01*
X111517261Y-139919870D01*
X111516581Y-139766384D01*
X111513412Y-139076401D01*
X111179202Y-139072542D01*
X110844991Y-139068684D01*
X110844991Y-139413940D01*
X110844991Y-139759197D01*
X110492812Y-139759197D01*
X110140634Y-139759197D01*
X110140634Y-139407018D01*
X110140634Y-139054839D01*
X110485890Y-139054839D01*
X110831146Y-139054839D01*
X110827288Y-138720629D01*
X110823429Y-138386418D01*
X109799236Y-138383026D01*
X108775042Y-138379634D01*
X108775042Y-139062228D01*
X108775042Y-139744822D01*
X109120034Y-139744822D01*
X109465025Y-139744822D01*
X109465025Y-140089814D01*
X109465025Y-140434805D01*
X110155008Y-140434805D01*
X110844991Y-140434805D01*
X110844991Y-140786728D01*
X110844991Y-141138652D01*
X110496406Y-141142501D01*
X110458143Y-141142872D01*
X110364489Y-141143483D01*
X110255499Y-141143873D01*
X110134112Y-141144056D01*
X110003267Y-141144047D01*
X109865903Y-141143859D01*
X109724959Y-141143508D01*
X109583373Y-141143007D01*
X109444086Y-141142370D01*
X109310036Y-141141613D01*
X109184162Y-141140748D01*
X109069402Y-141139791D01*
X108968698Y-141138755D01*
X108884986Y-141137655D01*
X108821206Y-141136505D01*
X108780298Y-141135319D01*
X108765200Y-141134112D01*
X108764190Y-141119402D01*
X108763103Y-141078742D01*
X108761980Y-141014958D01*
X108760854Y-140930870D01*
X108759758Y-140829300D01*
X108758726Y-140713067D01*
X108757793Y-140584993D01*
X108756991Y-140447899D01*
X108753480Y-139766384D01*
X108419270Y-139762525D01*
X108085059Y-139758667D01*
X108085059Y-140103434D01*
X108085059Y-140448201D01*
X107736474Y-140452284D01*
X107731147Y-140452346D01*
X107603641Y-140453391D01*
X107459312Y-140453906D01*
X107309551Y-140453892D01*
X107165751Y-140453349D01*
X107039304Y-140452276D01*
X106690718Y-140448184D01*
X106690718Y-140096503D01*
X106690718Y-139744822D01*
X107380617Y-139744822D01*
X108070516Y-139744822D01*
X108067006Y-139065620D01*
X108063497Y-138386418D01*
X107384295Y-138382909D01*
X106705093Y-138379399D01*
X106705093Y-138724307D01*
X106705093Y-139054839D01*
X106705093Y-139069214D01*
X106360102Y-139069214D01*
X106015110Y-139069214D01*
X106015110Y-139744822D01*
X106015110Y-140104188D01*
X106015110Y-140434805D01*
X106015110Y-141139163D01*
X105666525Y-141139493D01*
X105559131Y-141139590D01*
X105292935Y-141139785D01*
X105026014Y-141139921D01*
X104759917Y-141140000D01*
X104496197Y-141140023D01*
X104236405Y-141139993D01*
X103982093Y-141139912D01*
X103734811Y-141139781D01*
X103496111Y-141139604D01*
X103267544Y-141139381D01*
X103050661Y-141139115D01*
X102847015Y-141138808D01*
X102658156Y-141138462D01*
X102485636Y-141138079D01*
X102331005Y-141137660D01*
X102195816Y-141137209D01*
X102081619Y-141136727D01*
X101989967Y-141136215D01*
X101922409Y-141135677D01*
X101880499Y-141135114D01*
X101865786Y-141134528D01*
X101865391Y-141130789D01*
X101864608Y-141102549D01*
X101863875Y-141048051D01*
X101863193Y-140968971D01*
X101862567Y-140866988D01*
X101862001Y-140743780D01*
X101861498Y-140601024D01*
X101861063Y-140440399D01*
X101860697Y-140263582D01*
X101860407Y-140072252D01*
X101860194Y-139868085D01*
X101860064Y-139652761D01*
X101860019Y-139427957D01*
X101860063Y-139195350D01*
X101860136Y-139068684D01*
X102565195Y-139068684D01*
X102565195Y-139751744D01*
X102565195Y-140434805D01*
X103248256Y-140434805D01*
X103931316Y-140434805D01*
X103927458Y-140100595D01*
X103923599Y-139766384D01*
X103582461Y-139762531D01*
X103241322Y-139758678D01*
X103237469Y-139417539D01*
X103233616Y-139076401D01*
X102899405Y-139072542D01*
X102565195Y-139068684D01*
X101860136Y-139068684D01*
X101860200Y-138956619D01*
X101860434Y-138713441D01*
X101860821Y-138378701D01*
X103945161Y-138378701D01*
X103945161Y-139061761D01*
X103945161Y-139744822D01*
X104628222Y-139744822D01*
X105311282Y-139744822D01*
X105307424Y-139410612D01*
X105303565Y-139076401D01*
X104962427Y-139072548D01*
X104621288Y-139068695D01*
X104617435Y-138727556D01*
X104613582Y-138386418D01*
X104279371Y-138382559D01*
X103945161Y-138378701D01*
X105325127Y-138378701D01*
X105325127Y-138716770D01*
X105325127Y-139054839D01*
X105663196Y-139054839D01*
X106001265Y-139054839D01*
X105997407Y-138720629D01*
X105993548Y-138386418D01*
X105659338Y-138382559D01*
X105325127Y-138378701D01*
X103945161Y-138378701D01*
X101860821Y-138378701D01*
X101860837Y-138364856D01*
X102550820Y-138364856D01*
X103240803Y-138364856D01*
X103240803Y-138019864D01*
X103240803Y-137688718D01*
X110844991Y-137688718D01*
X110844991Y-138026787D01*
X110844991Y-138364856D01*
X111183060Y-138364856D01*
X111521129Y-138364856D01*
X111517271Y-138030645D01*
X111513412Y-137696435D01*
X111179202Y-137692576D01*
X110844991Y-137688718D01*
X103240803Y-137688718D01*
X103240803Y-137674873D01*
X103586060Y-137674873D01*
X103931316Y-137674873D01*
X103927458Y-137340662D01*
X103923599Y-137006452D01*
X103233616Y-137003283D01*
X103143120Y-137002876D01*
X102986743Y-137002213D01*
X102829447Y-137001590D01*
X102676176Y-137001026D01*
X102531874Y-137000536D01*
X102401487Y-137000138D01*
X102289959Y-136999850D01*
X102202235Y-136999689D01*
X101860837Y-136999265D01*
X101860837Y-136647287D01*
X105325127Y-136647287D01*
X105325127Y-137674873D01*
X106352713Y-137674873D01*
X107380298Y-137674873D01*
X107376906Y-136650679D01*
X107375775Y-136309282D01*
X108085059Y-136309282D01*
X108085059Y-136992077D01*
X108085059Y-137674873D01*
X109457838Y-137674873D01*
X110830617Y-137674873D01*
X110830617Y-137329881D01*
X110830617Y-136984890D01*
X111175873Y-136984890D01*
X111521129Y-136984890D01*
X111517271Y-136650679D01*
X111513412Y-136316469D01*
X111172274Y-136312616D01*
X110831136Y-136308762D01*
X110827282Y-135967624D01*
X110823429Y-135626486D01*
X109799236Y-135623094D01*
X108775042Y-135619702D01*
X108775042Y-135964492D01*
X108775042Y-136309282D01*
X108430051Y-136309282D01*
X108085059Y-136309282D01*
X107375775Y-136309282D01*
X107373514Y-135626486D01*
X106349321Y-135623094D01*
X105325127Y-135619702D01*
X105325127Y-136647287D01*
X101860837Y-136647287D01*
X101860837Y-136647086D01*
X101860837Y-136294907D01*
X102551494Y-136294907D01*
X103242152Y-136294907D01*
X103240768Y-135953509D01*
X103240741Y-135946678D01*
X103240352Y-135821471D01*
X103240082Y-135679374D01*
X103239942Y-135531566D01*
X103239942Y-135389223D01*
X103240090Y-135266855D01*
X103945161Y-135266855D01*
X103945161Y-135604924D01*
X104283230Y-135604924D01*
X104621299Y-135604924D01*
X104617441Y-135270713D01*
X104617396Y-135266855D01*
X108085059Y-135266855D01*
X108085059Y-135604924D01*
X108423128Y-135604924D01*
X108761197Y-135604924D01*
X108757339Y-135270713D01*
X108753480Y-134936503D01*
X108419270Y-134932644D01*
X108085059Y-134928786D01*
X108085059Y-135266855D01*
X104617396Y-135266855D01*
X104613582Y-134936503D01*
X104279371Y-134932644D01*
X103945161Y-134928786D01*
X103945161Y-135266855D01*
X103240090Y-135266855D01*
X103240094Y-135263526D01*
X103240803Y-134914941D01*
X103585593Y-134914941D01*
X103930383Y-134914941D01*
X103926991Y-133890747D01*
X103923599Y-132866554D01*
X103589388Y-132862695D01*
X103255178Y-132858837D01*
X104635144Y-132858837D01*
X104635144Y-133886889D01*
X104635144Y-134914941D01*
X104972948Y-134914941D01*
X105310752Y-134914941D01*
X105310752Y-134569949D01*
X105310752Y-134238803D01*
X107395076Y-134238803D01*
X107395076Y-134576872D01*
X107395076Y-134914941D01*
X107733145Y-134914941D01*
X108071214Y-134914941D01*
X108067356Y-134580730D01*
X108063497Y-134246520D01*
X107729287Y-134242661D01*
X107395076Y-134238803D01*
X105310752Y-134238803D01*
X105310752Y-134224958D01*
X106345642Y-134224958D01*
X107380533Y-134224958D01*
X107377023Y-133545756D01*
X107373514Y-132866554D01*
X106694312Y-132863045D01*
X106015110Y-132859535D01*
X106015110Y-133204442D01*
X106015110Y-133549349D01*
X105663191Y-133549349D01*
X105311273Y-133549349D01*
X105307419Y-133207952D01*
X105303565Y-132866554D01*
X104969355Y-132862695D01*
X104635144Y-132858837D01*
X103255178Y-132858837D01*
X103255178Y-133549085D01*
X103255178Y-134239333D01*
X102910186Y-134239333D01*
X102565195Y-134239333D01*
X102565195Y-134584324D01*
X102565195Y-134929316D01*
X102213514Y-134929316D01*
X101861833Y-134929316D01*
X101857741Y-134580730D01*
X101857680Y-134575404D01*
X101856631Y-134447897D01*
X101856112Y-134303568D01*
X101856123Y-134153807D01*
X101856663Y-134010007D01*
X101857733Y-133883560D01*
X101861816Y-133534975D01*
X102206583Y-133534975D01*
X102551350Y-133534975D01*
X102547492Y-133200764D01*
X102543633Y-132866554D01*
X102202235Y-132862700D01*
X101860837Y-132858846D01*
X101860445Y-132521302D01*
X101860424Y-132502829D01*
X101860307Y-132378664D01*
X101860205Y-132238133D01*
X101860125Y-132091841D01*
X101860072Y-131950393D01*
X101860053Y-131824392D01*
X101860054Y-131806515D01*
X101860078Y-131676594D01*
X101860136Y-131532173D01*
X101860220Y-131384065D01*
X101860325Y-131243081D01*
X101860445Y-131120034D01*
X101860837Y-130775043D01*
X102205829Y-130775043D01*
X102550820Y-130775043D01*
X102550820Y-130430051D01*
X102550820Y-130085060D01*
X102895812Y-130085060D01*
X103240803Y-130085060D01*
X103240803Y-129740068D01*
X103240803Y-129395077D01*
X104972948Y-129395077D01*
X106705093Y-129395077D01*
X106705093Y-129747256D01*
X106705093Y-130099434D01*
X106360102Y-130099434D01*
X106015110Y-130099434D01*
X106015110Y-130789417D01*
X106015110Y-131479400D01*
X105662931Y-131479400D01*
X105310752Y-131479400D01*
X105310162Y-131138003D01*
X105310156Y-131134903D01*
X105309811Y-131009744D01*
X105309220Y-130867493D01*
X105308443Y-130719492D01*
X105307539Y-130577085D01*
X105306568Y-130451613D01*
X105303565Y-130106622D01*
X104279371Y-130103230D01*
X103255178Y-130099837D01*
X103255178Y-130789619D01*
X103255178Y-131479400D01*
X102910186Y-131479400D01*
X102565195Y-131479400D01*
X102565195Y-131817205D01*
X102565195Y-132155009D01*
X103255178Y-132155009D01*
X103945161Y-132155009D01*
X103945161Y-132500000D01*
X103945161Y-132844992D01*
X104282965Y-132844992D01*
X104620769Y-132844992D01*
X104620769Y-132500000D01*
X104620769Y-132155009D01*
X104972948Y-132155009D01*
X105325127Y-132155009D01*
X105325127Y-132500000D01*
X105325127Y-132844992D01*
X105662931Y-132844992D01*
X106000735Y-132844992D01*
X106000735Y-132500000D01*
X106000735Y-132155009D01*
X106690983Y-132155009D01*
X107381231Y-132155009D01*
X107377373Y-131820798D01*
X107373514Y-131486588D01*
X107032116Y-131482734D01*
X106690718Y-131478880D01*
X106690718Y-131126961D01*
X106690718Y-130788888D01*
X107395076Y-130788888D01*
X107395076Y-131126957D01*
X107395076Y-131465026D01*
X107733145Y-131465026D01*
X108071214Y-131465026D01*
X108067356Y-131130815D01*
X108063497Y-130796605D01*
X107729287Y-130792746D01*
X107395076Y-130788888D01*
X106690718Y-130788888D01*
X106690718Y-130775043D01*
X107035710Y-130775043D01*
X107380701Y-130775043D01*
X107380701Y-130430051D01*
X107380701Y-130085060D01*
X107732880Y-130085060D01*
X108085059Y-130085060D01*
X108085059Y-130430051D01*
X108085059Y-130775043D01*
X108768120Y-130775043D01*
X109451180Y-130775043D01*
X109447322Y-130440832D01*
X109443463Y-130106622D01*
X109102065Y-130102768D01*
X108760667Y-130098914D01*
X108760243Y-129757776D01*
X108760163Y-129708781D01*
X108759925Y-129606361D01*
X108759569Y-129483075D01*
X108759115Y-129343866D01*
X108758579Y-129193677D01*
X108757977Y-129037450D01*
X108757329Y-128880129D01*
X108756649Y-128726656D01*
X108753480Y-128036673D01*
X108419270Y-128032814D01*
X108085059Y-128028955D01*
X108085059Y-128374212D01*
X108085059Y-128719468D01*
X107733378Y-128719468D01*
X107381697Y-128719468D01*
X107377606Y-128370883D01*
X107377544Y-128365556D01*
X107376495Y-128238050D01*
X107375976Y-128093721D01*
X107375987Y-127943960D01*
X107376527Y-127800160D01*
X107377597Y-127673713D01*
X107381680Y-127325128D01*
X108078361Y-127325128D01*
X108775042Y-127325128D01*
X108775042Y-127670119D01*
X108775042Y-128015111D01*
X109120034Y-128015111D01*
X109465025Y-128015111D01*
X109465025Y-128705094D01*
X109465025Y-129395077D01*
X109810017Y-129395077D01*
X110155008Y-129395077D01*
X110155008Y-130092247D01*
X110155008Y-130789417D01*
X109810017Y-130789417D01*
X109465025Y-130789417D01*
X109465025Y-131465026D01*
X109465025Y-131472213D01*
X109465025Y-132155009D01*
X109802829Y-132155009D01*
X110140634Y-132155009D01*
X110140634Y-131810017D01*
X110140634Y-131465026D01*
X111182795Y-131465026D01*
X112224957Y-131465026D01*
X112224957Y-131817205D01*
X112224957Y-132169383D01*
X111879966Y-132169383D01*
X111534974Y-132169383D01*
X111534974Y-132514375D01*
X111534974Y-132859366D01*
X111189983Y-132859366D01*
X110844991Y-132859366D01*
X110844991Y-133204358D01*
X110844991Y-133549349D01*
X110493073Y-133549349D01*
X110141154Y-133549349D01*
X110137300Y-133207952D01*
X110133446Y-132866554D01*
X109451931Y-132863043D01*
X109315644Y-132862241D01*
X109187487Y-132861293D01*
X109071145Y-132860238D01*
X108969443Y-132859111D01*
X108885200Y-132857946D01*
X108821241Y-132856779D01*
X108780387Y-132855643D01*
X108765459Y-132854575D01*
X108764397Y-132839821D01*
X108763262Y-132799118D01*
X108762095Y-132735292D01*
X108760930Y-132651166D01*
X108759802Y-132549562D01*
X108758747Y-132433302D01*
X108757798Y-132305208D01*
X108756991Y-132168103D01*
X108753480Y-131486588D01*
X108419270Y-131482729D01*
X108085059Y-131478871D01*
X108085059Y-131824127D01*
X108085059Y-132169383D01*
X107740068Y-132169383D01*
X107395076Y-132169383D01*
X107395076Y-132507188D01*
X107395076Y-132844992D01*
X107740068Y-132844992D01*
X108085059Y-132844992D01*
X108085059Y-133189983D01*
X108085059Y-133534975D01*
X108430051Y-133534975D01*
X108775042Y-133534975D01*
X108775042Y-133879966D01*
X108775042Y-134224958D01*
X109120034Y-134224958D01*
X109465025Y-134224958D01*
X109465025Y-134569949D01*
X109465025Y-134914941D01*
X110155008Y-134914941D01*
X110844991Y-134914941D01*
X110844991Y-135259932D01*
X110844991Y-135604924D01*
X111872577Y-135604924D01*
X112900163Y-135604924D01*
X112896770Y-134580730D01*
X112893378Y-133556537D01*
X112551980Y-133552683D01*
X112210583Y-133548829D01*
X112210583Y-133196911D01*
X112210583Y-132858837D01*
X114294906Y-132858837D01*
X114294906Y-133196906D01*
X114294906Y-133534975D01*
X114632975Y-133534975D01*
X114971045Y-133534975D01*
X114967186Y-133200764D01*
X114963327Y-132866554D01*
X114629117Y-132862695D01*
X114294906Y-132858837D01*
X112210583Y-132858837D01*
X112210583Y-132844992D01*
X112555574Y-132844992D01*
X112900566Y-132844992D01*
X112900566Y-132500000D01*
X112900566Y-132168854D01*
X113604923Y-132168854D01*
X113604923Y-132506923D01*
X113604923Y-132844992D01*
X113942992Y-132844992D01*
X114281062Y-132844992D01*
X114277203Y-132510781D01*
X114273344Y-132176571D01*
X113939134Y-132172712D01*
X113604923Y-132168854D01*
X112900566Y-132168854D01*
X112900566Y-132155009D01*
X113245822Y-132155009D01*
X113591078Y-132155009D01*
X113587220Y-131820798D01*
X113583361Y-131486588D01*
X113241963Y-131482734D01*
X112900566Y-131478880D01*
X112900566Y-131126961D01*
X112900566Y-130788888D01*
X113604923Y-130788888D01*
X113604923Y-131126957D01*
X113604923Y-131465026D01*
X113942992Y-131465026D01*
X114281062Y-131465026D01*
X114277203Y-131130815D01*
X114273344Y-130796605D01*
X113939134Y-130792746D01*
X113604923Y-130788888D01*
X112900566Y-130788888D01*
X112900566Y-130775043D01*
X113245557Y-130775043D01*
X113590549Y-130775043D01*
X113590549Y-130430051D01*
X113590549Y-130098905D01*
X114294906Y-130098905D01*
X114294906Y-130436974D01*
X114294906Y-130775043D01*
X114632975Y-130775043D01*
X114971045Y-130775043D01*
X114967186Y-130440832D01*
X114963327Y-130106622D01*
X114629117Y-130102763D01*
X114294906Y-130098905D01*
X113590549Y-130098905D01*
X113590549Y-130085060D01*
X113935540Y-130085060D01*
X114280532Y-130085060D01*
X114280532Y-129740068D01*
X114280532Y-129395077D01*
X116012677Y-129395077D01*
X117744821Y-129395077D01*
X117744821Y-129747256D01*
X117744821Y-130099434D01*
X117396236Y-130100144D01*
X117389264Y-130100157D01*
X117262234Y-130100300D01*
X117119239Y-130100291D01*
X116971458Y-130100142D01*
X116830070Y-130099865D01*
X116706253Y-130099469D01*
X116364855Y-130098086D01*
X116364855Y-130436564D01*
X116364855Y-130775043D01*
X117399830Y-130775043D01*
G37*
G36*
X113604923Y-140786984D02*
G01*
X113604923Y-141139163D01*
X113252744Y-141139163D01*
X112900566Y-141139163D01*
X112900566Y-140786984D01*
X112900566Y-140434805D01*
X113252744Y-140434805D01*
X113604923Y-140434805D01*
X113604923Y-140786984D01*
G37*
G36*
X119124787Y-141124788D02*
G01*
X116709847Y-141124788D01*
X114294906Y-141124788D01*
X114294906Y-138709848D01*
X114294906Y-136984890D01*
X114984889Y-136984890D01*
X114984889Y-138709848D01*
X114984889Y-140434805D01*
X116709847Y-140434805D01*
X118434804Y-140434805D01*
X118434804Y-138709848D01*
X118434804Y-136984890D01*
X116709847Y-136984890D01*
X114984889Y-136984890D01*
X114294906Y-136984890D01*
X114294906Y-136294907D01*
X116709847Y-136294907D01*
X119124787Y-136294907D01*
X119124787Y-138709848D01*
X119124787Y-141124788D01*
G37*
G36*
X117054838Y-134569949D02*
G01*
X117054838Y-134914941D01*
X117399830Y-134914941D01*
X117744821Y-134914941D01*
X117744821Y-135266864D01*
X117744821Y-135618787D01*
X117403424Y-135622637D01*
X117397684Y-135622700D01*
X117305961Y-135623434D01*
X117203003Y-135623815D01*
X117092447Y-135623871D01*
X116977925Y-135623631D01*
X116863075Y-135623123D01*
X116751529Y-135622376D01*
X116646924Y-135621418D01*
X116552893Y-135620277D01*
X116473073Y-135618981D01*
X116411097Y-135617560D01*
X116370600Y-135616041D01*
X116355219Y-135614453D01*
X116354835Y-135612308D01*
X116353793Y-135587840D01*
X116352830Y-135538357D01*
X116351963Y-135466622D01*
X116351206Y-135375400D01*
X116350573Y-135267452D01*
X116350078Y-135145542D01*
X116349736Y-135012433D01*
X116349561Y-134870888D01*
X116349568Y-134723671D01*
X116349772Y-134573543D01*
X116350481Y-134224958D01*
X116702660Y-134224958D01*
X117054838Y-134224958D01*
X117054838Y-134569949D01*
G37*
G36*
X114984889Y-135267120D02*
G01*
X114984889Y-135619299D01*
X114632710Y-135619299D01*
X114280532Y-135619299D01*
X114280532Y-135267120D01*
X114280532Y-134914941D01*
X114632710Y-134914941D01*
X114984889Y-134914941D01*
X114984889Y-135267120D01*
G37*
G36*
X112224957Y-134577137D02*
G01*
X112224957Y-134929316D01*
X111872778Y-134929316D01*
X111520600Y-134929316D01*
X111520600Y-134577137D01*
X111520600Y-134224958D01*
X111872778Y-134224958D01*
X112224957Y-134224958D01*
X112224957Y-134577137D01*
G37*
G36*
X104635144Y-131127222D02*
G01*
X104635144Y-131479400D01*
X104282965Y-131479400D01*
X103930786Y-131479400D01*
X103930786Y-131127222D01*
X103930786Y-130775043D01*
X104282965Y-130775043D01*
X104635144Y-130775043D01*
X104635144Y-131127222D01*
G37*
G36*
X113604923Y-129409451D02*
G01*
X113259932Y-129409451D01*
X112914940Y-129409451D01*
X112914940Y-129754443D01*
X112914940Y-130099434D01*
X112569949Y-130099434D01*
X112224957Y-130099434D01*
X112224957Y-130444426D01*
X112224957Y-130789417D01*
X111872778Y-130789417D01*
X111520600Y-130789417D01*
X111520600Y-130437239D01*
X111520600Y-130085060D01*
X111865856Y-130085060D01*
X112211112Y-130085060D01*
X112207254Y-129750849D01*
X112203395Y-129416639D01*
X111858404Y-129413636D01*
X111855211Y-129413608D01*
X111729136Y-129412638D01*
X111586471Y-129411737D01*
X111438549Y-129410964D01*
X111296705Y-129410380D01*
X111172275Y-129410042D01*
X110831137Y-129409451D01*
X110827283Y-129068054D01*
X110823429Y-128726656D01*
X110482031Y-128722802D01*
X110140634Y-128718948D01*
X110140209Y-128377810D01*
X110140129Y-128328815D01*
X110139891Y-128226395D01*
X110139535Y-128103109D01*
X110139081Y-127963900D01*
X110138545Y-127813711D01*
X110137943Y-127657484D01*
X110137295Y-127500163D01*
X110136615Y-127346690D01*
X110136576Y-127338154D01*
X110844991Y-127338154D01*
X110844991Y-128021624D01*
X110844991Y-128705094D01*
X111182795Y-128705094D01*
X111520600Y-128705094D01*
X111520600Y-128360102D01*
X111520600Y-128015111D01*
X111872778Y-128015111D01*
X112224957Y-128015111D01*
X112224957Y-128360102D01*
X112224957Y-128705094D01*
X112562502Y-128705094D01*
X112900046Y-128705094D01*
X112896712Y-127335909D01*
X112893378Y-125966724D01*
X112214176Y-125963214D01*
X111534974Y-125959705D01*
X111534974Y-126297425D01*
X111534974Y-126635145D01*
X111879966Y-126635145D01*
X112224957Y-126635145D01*
X112224957Y-126987323D01*
X112224957Y-127339502D01*
X111876372Y-127340211D01*
X111869400Y-127340225D01*
X111742369Y-127340367D01*
X111599375Y-127340359D01*
X111451594Y-127340210D01*
X111310206Y-127339933D01*
X111186389Y-127339537D01*
X110844991Y-127338154D01*
X110136576Y-127338154D01*
X110133446Y-126656707D01*
X109788455Y-126653704D01*
X109785323Y-126653677D01*
X109659232Y-126652706D01*
X109516518Y-126651805D01*
X109368524Y-126651032D01*
X109226592Y-126650447D01*
X109102065Y-126650110D01*
X108760667Y-126649519D01*
X108760667Y-126297340D01*
X108760667Y-125945162D01*
X109457838Y-125945162D01*
X110155008Y-125945162D01*
X110155008Y-126290153D01*
X110155008Y-126635145D01*
X110492728Y-126635145D01*
X110830448Y-126635145D01*
X110826938Y-125955943D01*
X110823429Y-125276741D01*
X110482031Y-125272887D01*
X110140634Y-125269033D01*
X110140634Y-124917114D01*
X110140634Y-124565196D01*
X110492812Y-124565196D01*
X110844991Y-124565196D01*
X110844991Y-124910187D01*
X110844991Y-125255179D01*
X111183470Y-125255179D01*
X111521948Y-125255179D01*
X111520565Y-124913781D01*
X111520537Y-124906950D01*
X111520149Y-124781743D01*
X111519879Y-124639646D01*
X111519738Y-124491837D01*
X111519739Y-124349495D01*
X111519890Y-124223798D01*
X111520600Y-123875213D01*
X111872778Y-123875213D01*
X112224957Y-123875213D01*
X112224957Y-124565196D01*
X112224957Y-125255179D01*
X112914940Y-125255179D01*
X113604923Y-125255179D01*
X113604923Y-127332315D01*
X113604923Y-128705094D01*
X113604923Y-129409451D01*
G37*
G36*
X119124787Y-129747256D02*
G01*
X119124787Y-130099434D01*
X118772609Y-130099434D01*
X118420430Y-130099434D01*
X118420430Y-129747256D01*
X118420430Y-129395077D01*
X118772609Y-129395077D01*
X119124787Y-129395077D01*
X119124787Y-129747256D01*
G37*
G36*
X119124787Y-128705094D02*
G01*
X116709847Y-128705094D01*
X114294906Y-128705094D01*
X114294906Y-126290153D01*
X114294906Y-124565196D01*
X114984889Y-124565196D01*
X114984889Y-126290153D01*
X114984889Y-128015111D01*
X116709847Y-128015111D01*
X118434804Y-128015111D01*
X118434804Y-126290153D01*
X118434804Y-124565196D01*
X116709847Y-124565196D01*
X114984889Y-124565196D01*
X114294906Y-124565196D01*
X114294906Y-123875213D01*
X116709847Y-123875213D01*
X119124787Y-123875213D01*
X119124787Y-126290153D01*
X119124787Y-128705094D01*
G37*
G36*
X106705093Y-128705094D02*
G01*
X104290152Y-128705094D01*
X101875212Y-128705094D01*
X101875212Y-126290153D01*
X101875212Y-124565196D01*
X102565195Y-124565196D01*
X102565195Y-126290153D01*
X102565195Y-128015111D01*
X104290152Y-128015111D01*
X106015110Y-128015111D01*
X106015110Y-126290153D01*
X106015110Y-124565196D01*
X104290152Y-124565196D01*
X102565195Y-124565196D01*
X101875212Y-124565196D01*
X101875212Y-123875213D01*
X104290152Y-123875213D01*
X106705093Y-123875213D01*
X106705093Y-126290153D01*
X106705093Y-128705094D01*
G37*
G36*
X108085059Y-124220204D02*
G01*
X108085059Y-124565196D01*
X108422863Y-124565196D01*
X108760667Y-124565196D01*
X108760667Y-124220204D01*
X108760667Y-123875213D01*
X109112846Y-123875213D01*
X109465025Y-123875213D01*
X109465025Y-124572383D01*
X109465025Y-125269553D01*
X109116440Y-125270262D01*
X109109468Y-125270276D01*
X108982437Y-125270418D01*
X108839443Y-125270410D01*
X108691662Y-125270261D01*
X108550274Y-125269984D01*
X108426457Y-125269588D01*
X108085059Y-125268205D01*
X108085059Y-125613871D01*
X108085059Y-125959536D01*
X107732880Y-125959536D01*
X107380701Y-125959536D01*
X107380309Y-125621732D01*
X107380289Y-125603302D01*
X107380171Y-125479057D01*
X107380069Y-125338448D01*
X107379989Y-125192088D01*
X107379936Y-125050589D01*
X107379917Y-124924562D01*
X107379918Y-124906685D01*
X107379942Y-124776764D01*
X107380000Y-124632343D01*
X107380084Y-124484234D01*
X107380189Y-124343251D01*
X107380309Y-124220204D01*
X107380701Y-123875213D01*
X107732880Y-123875213D01*
X108085059Y-123875213D01*
X108085059Y-124220204D01*
G37*
G36*
X110155008Y-136647086D02*
G01*
X110155008Y-136999265D01*
X109802829Y-136999265D01*
X109450651Y-136999265D01*
X109450651Y-136647086D01*
X109450651Y-136294907D01*
X109802829Y-136294907D01*
X110155008Y-136294907D01*
X110155008Y-136647086D01*
G37*
G36*
X106705093Y-136647086D02*
G01*
X106705093Y-136999265D01*
X106352914Y-136999265D01*
X106000735Y-136999265D01*
X106000735Y-136647086D01*
X106000735Y-136294907D01*
X106352914Y-136294907D01*
X106705093Y-136294907D01*
X106705093Y-136647086D01*
G37*
G36*
X117744821Y-138709848D02*
G01*
X117744821Y-139744822D01*
X116709847Y-139744822D01*
X115674872Y-139744822D01*
X115674872Y-138709848D01*
X115674872Y-137674873D01*
X116709847Y-137674873D01*
X117744821Y-137674873D01*
X117744821Y-138709848D01*
G37*
G36*
X117744821Y-126290153D02*
G01*
X117744821Y-127325128D01*
X116709847Y-127325128D01*
X115674872Y-127325128D01*
X115674872Y-126290153D01*
X115674872Y-125255179D01*
X116709847Y-125255179D01*
X117744821Y-125255179D01*
X117744821Y-126290153D01*
G37*
G36*
X105325127Y-126290153D02*
G01*
X105325127Y-127325128D01*
X104290152Y-127325128D01*
X103255178Y-127325128D01*
X103255178Y-126290153D01*
X103255178Y-125255179D01*
X104290152Y-125255179D01*
X105325127Y-125255179D01*
X105325127Y-126290153D01*
G37*
D13*
%TO.C,X1*%
X122266000Y-161568000D02*
X122266000Y-153186000D01*
X122179640Y-153135200D02*
X117440000Y-153135200D01*
X112360000Y-153186000D02*
X107534000Y-153186000D01*
X107534000Y-161568000D02*
X122266000Y-161568000D01*
X107534000Y-153186000D02*
X107534000Y-161568000D01*
%TD*%
M02*
