%TF.GenerationSoftware,KiCad,Pcbnew,8.0.6*%
%TF.CreationDate,2025-01-13T20:16:21-05:00*%
%TF.ProjectId,TamaBadge,54616d61-4261-4646-9765-2e6b69636164,rev?*%
%TF.SameCoordinates,Original*%
%TF.FileFunction,Copper,L2,Bot*%
%TF.FilePolarity,Positive*%
%FSLAX46Y46*%
G04 Gerber Fmt 4.6, Leading zero omitted, Abs format (unit mm)*
G04 Created by KiCad (PCBNEW 8.0.6) date 2025-01-13 20:16:21*
%MOMM*%
%LPD*%
G01*
G04 APERTURE LIST*
%TA.AperFunction,ComponentPad*%
%ADD10C,2.000000*%
%TD*%
%TA.AperFunction,ComponentPad*%
%ADD11O,1.730000X2.030000*%
%TD*%
%TA.AperFunction,ComponentPad*%
%ADD12R,1.730000X2.030000*%
%TD*%
%TA.AperFunction,ComponentPad*%
%ADD13R,1.800000X1.800000*%
%TD*%
%TA.AperFunction,ComponentPad*%
%ADD14C,1.800000*%
%TD*%
%TA.AperFunction,ComponentPad*%
%ADD15C,1.600000*%
%TD*%
%TA.AperFunction,ComponentPad*%
%ADD16O,1.600000X1.600000*%
%TD*%
%TA.AperFunction,ComponentPad*%
%ADD17C,1.727200*%
%TD*%
%TA.AperFunction,ComponentPad*%
%ADD18O,1.727200X1.727200*%
%TD*%
%TA.AperFunction,ComponentPad*%
%ADD19R,1.727200X1.727200*%
%TD*%
%TA.AperFunction,ViaPad*%
%ADD20C,0.600000*%
%TD*%
%TA.AperFunction,Conductor*%
%ADD21C,0.200000*%
%TD*%
G04 APERTURE END LIST*
D10*
%TO.P,SW7,2,2*%
%TO.N,Net-(J1-Pin_1)*%
X95500000Y-134500000D03*
X95500000Y-128000000D03*
%TO.P,SW7,1,1*%
%TO.N,Net-(U1-PA4_A1_D1)*%
X100000000Y-134500000D03*
X100000000Y-128000000D03*
%TD*%
D11*
%TO.P,J1,3,Pin_3*%
%TO.N,Net-(J1-Pin_3)*%
X118540000Y-120000000D03*
%TO.P,J1,2,Pin_2*%
%TO.N,Net-(J1-Pin_2)*%
X116000000Y-120000000D03*
D12*
%TO.P,J1,1,Pin_1*%
%TO.N,Net-(J1-Pin_1)*%
X113460000Y-120000000D03*
%TD*%
D13*
%TO.P,D2,1,K*%
%TO.N,Net-(D2-K)*%
X128960000Y-116500000D03*
D14*
%TO.P,D2,2,A*%
%TO.N,Net-(D1-A)*%
X131500000Y-116500000D03*
%TD*%
D15*
%TO.P,R1,1*%
%TO.N,Net-(D1-K)*%
X103310000Y-121500000D03*
D16*
%TO.P,R1,2*%
%TO.N,Net-(J1-Pin_1)*%
X95690000Y-121500000D03*
%TD*%
D15*
%TO.P,R2,1*%
%TO.N,Net-(D2-K)*%
X103500000Y-118310000D03*
D16*
%TO.P,R2,2*%
%TO.N,Net-(J1-Pin_1)*%
X103500000Y-110690000D03*
%TD*%
D17*
%TO.P,X1,6,GPIO2*%
%TO.N,unconnected-(X1-GPIO2-Pad6)*%
X117500000Y-158540000D03*
%TO.P,X1,5,GPIO1*%
%TO.N,unconnected-(X1-GPIO1-Pad5)*%
X117500000Y-156000000D03*
D18*
%TO.P,X1,4,SCL*%
%TO.N,unconnected-(X1-SCL-Pad4)*%
X114960000Y-158540000D03*
%TO.P,X1,3,SDA*%
%TO.N,unconnected-(X1-SDA-Pad3)*%
X114960000Y-156000000D03*
D19*
%TO.P,X1,2,GND*%
%TO.N,Net-(J1-Pin_1)*%
X112420000Y-158540000D03*
D18*
%TO.P,X1,1,VCC*%
%TO.N,Net-(U1-3V3)*%
X112420000Y-156000000D03*
%TD*%
D10*
%TO.P,SW5,2,2*%
%TO.N,Net-(J1-Pin_1)*%
X119250000Y-152000000D03*
X112750000Y-152000000D03*
%TO.P,SW5,1,1*%
%TO.N,Net-(U1-PA8_A4_D4_SDA)*%
X119250000Y-147500000D03*
X112750000Y-147500000D03*
%TD*%
%TO.P,SW4,2,2*%
%TO.N,Net-(J1-Pin_1)*%
X107750000Y-149500000D03*
X101250000Y-149500000D03*
%TO.P,SW4,1,1*%
%TO.N,Net-(U1-PA10_A2_D2)*%
X107750000Y-145000000D03*
X101250000Y-145000000D03*
%TD*%
%TO.P,SW6,2,2*%
%TO.N,Net-(J1-Pin_1)*%
X130500000Y-149750000D03*
X124000000Y-149750000D03*
%TO.P,SW6,1,1*%
%TO.N,Net-(U1-PA11_A3_D3)*%
X130500000Y-145250000D03*
X124000000Y-145250000D03*
%TD*%
D13*
%TO.P,D1,1,K*%
%TO.N,Net-(D1-K)*%
X97225000Y-113500000D03*
D14*
%TO.P,D1,2,A*%
%TO.N,Net-(D1-A)*%
X99765000Y-113500000D03*
%TD*%
D20*
%TO.N,Net-(U1-PA4_A1_D1)*%
X121777800Y-128907800D03*
%TO.N,Net-(U1-PA10_A2_D2)*%
X120022300Y-134710700D03*
%TO.N,Net-(J1-Pin_3)*%
X115798500Y-128303400D03*
%TO.N,Net-(J1-Pin_2)*%
X114558000Y-127746100D03*
%TD*%
D21*
%TO.N,Net-(U1-PA4_A1_D1)*%
X100907800Y-128907800D02*
X121777800Y-128907800D01*
X100000000Y-128000000D02*
X100907800Y-128907800D01*
%TO.N,Net-(U1-PA11_A3_D3)*%
X124000000Y-145250000D02*
X130500000Y-145250000D01*
%TO.N,Net-(U1-PA8_A4_D4_SDA)*%
X112750000Y-147500000D02*
X119250000Y-147500000D01*
%TO.N,Net-(U1-PA10_A2_D2)*%
X101250000Y-145000000D02*
X107750000Y-145000000D01*
X118039300Y-134710700D02*
X120022300Y-134710700D01*
X107750000Y-145000000D02*
X118039300Y-134710700D01*
%TO.N,Net-(J1-Pin_1)*%
X124000000Y-149750000D02*
X130500000Y-149750000D01*
X101250000Y-149500000D02*
X107750000Y-149500000D01*
X110250000Y-149500000D02*
X112750000Y-152000000D01*
X107750000Y-149500000D02*
X110250000Y-149500000D01*
X121500000Y-149750000D02*
X119250000Y-152000000D01*
X124000000Y-149750000D02*
X121500000Y-149750000D01*
X119250000Y-152000000D02*
X112750000Y-152000000D01*
X97895200Y-122603500D02*
X96791700Y-121500000D01*
X109689800Y-122603500D02*
X97895200Y-122603500D01*
X112293300Y-120000000D02*
X109689800Y-122603500D01*
X113460000Y-120000000D02*
X112293300Y-120000000D01*
X95690000Y-121500000D02*
X96791700Y-121500000D01*
%TO.N,Net-(J1-Pin_3)*%
X118540000Y-125561900D02*
X115798500Y-128303400D01*
X118540000Y-120000000D02*
X118540000Y-125561900D01*
%TO.N,Net-(J1-Pin_2)*%
X116000000Y-120000000D02*
X114833300Y-120000000D01*
X114833300Y-127470800D02*
X114558000Y-127746100D01*
X114833300Y-120000000D02*
X114833300Y-127470800D01*
%TO.N,Net-(D2-K)*%
X125948300Y-118310000D02*
X127758300Y-116500000D01*
X103500000Y-118310000D02*
X125948300Y-118310000D01*
X128960000Y-116500000D02*
X127758300Y-116500000D01*
%TO.N,Net-(D1-A)*%
X100765000Y-114500000D02*
X99765000Y-113500000D01*
X129500000Y-114500000D02*
X100765000Y-114500000D01*
X131500000Y-116500000D02*
X129500000Y-114500000D01*
%TO.N,Net-(D1-K)*%
X97225000Y-115415000D02*
X97225000Y-113500000D01*
X103310000Y-121500000D02*
X97225000Y-115415000D01*
%TD*%
M02*
